<?xml version="1.0" standalone="no"?>
<!DOCTYPE svg PUBLIC "-//W3C//DTD SVG 1.1//EN" "http://www.w3.org/Graphics/SVG/1.1/DTD/svg11.dtd" >
<svg xmlns="http://www.w3.org/2000/svg" xmlns:xlink="http://www.w3.org/1999/xlink" version="1.1">
<metadata></metadata>
<defs>
<font id="hans_kendrickheavy" horiz-adv-x="1265" >
<font-face units-per-em="2048" ascent="1638" descent="-410" />
<missing-glyph horiz-adv-x="512" />
<glyph horiz-adv-x="0" />
<glyph unicode="&#xd;" horiz-adv-x="0" />
<glyph horiz-adv-x="0" />
<glyph horiz-adv-x="0" />
<glyph unicode=" "  horiz-adv-x="512" />
<glyph unicode="&#x09;" horiz-adv-x="512" />
<glyph unicode="&#xa0;" horiz-adv-x="512" />
<glyph unicode="!" horiz-adv-x="559" d="M82 176q0 41 15.5 77t42 63.5t62.5 43t77 15.5t77.5 -15.5t63 -43t42 -63.5t15.5 -77q0 -82 -57.5 -139t-140.5 -57q-82 0 -139.5 57t-57.5 139zM125 506v1030h307v-1030h-307z" />
<glyph unicode="&#x22;" horiz-adv-x="792" d="M82 1536h231l-41 -465h-149zM479 1536h232l-41 -465h-150z" />
<glyph unicode="#" horiz-adv-x="1384" d="M82 299l37 268h194l37 271h-192l37 268h190l43 299h285l-41 -299h151l41 299h285l-41 -299h195l-39 -268h-193l-37 -271h191l-33 -268h-195l-41 -299h-286l43 299h-152l-41 -299h-287l41 299h-192zM598 567h152l34 271h-149z" />
<glyph unicode="$" horiz-adv-x="1118" d="M82 352l244 111q12 -53 33.5 -89t49 -57.5t57.5 -33t58 -13.5v381l-10 4q-55 25 -116.5 57.5t-113 83t-85 122t-33.5 174.5q0 86 27.5 162.5t75.5 137t114 101.5t141 55v172h164v-172q47 -8 97.5 -28.5t96.5 -55t84 -87t62 -124.5l-248 -116q-12 47 -37.5 73.5 t-54.5 40.5v-364h2q55 -25 116.5 -58.5t112 -84t84 -123.5t33.5 -177q0 -88 -28.5 -161.5t-76.5 -130t-110.5 -96.5t-132.5 -58v-176h-164v160q-61 4 -127.5 23.5t-128 62.5t-110.5 112.5t-76 171.5zM432 1092q0 -39 21.5 -68.5t70.5 -58.5v282q-41 -23 -66.5 -65.5 t-25.5 -89.5zM688 305q39 27 61.5 62.5t22.5 76.5q0 39 -19.5 69t-64.5 58v-266z" />
<glyph unicode="%" horiz-adv-x="1636" d="M82 1217q0 70 26.5 132t70.5 108t104.5 72.5t128.5 26.5t127 -26.5t104 -72.5t70.5 -108t25.5 -132q0 -72 -25.5 -133.5t-70.5 -107.5t-104.5 -72.5t-126.5 -26.5q-68 0 -128.5 26.5t-104.5 72.5t-70.5 107.5t-26.5 133.5zM176 -2l948 1540h334l-948 -1540h-334z M315 1217q0 -41 28 -70t69 -29t68.5 29t27.5 70t-27.5 69.5t-68.5 28.5t-69 -29t-28 -69zM895 319q0 70 26.5 132.5t71.5 108.5t104.5 72.5t127.5 26.5t127 -26.5t104 -72.5t71.5 -108.5t26.5 -132.5q0 -72 -26.5 -133t-71.5 -107t-104.5 -72.5t-126.5 -26.5 q-68 0 -127.5 26.5t-104.5 72.5t-71.5 107.5t-26.5 132.5zM1126 319q0 -41 29 -69.5t70 -28.5t68.5 28.5t27.5 69.5t-27.5 70t-68.5 29t-70 -29t-29 -70z" />
<glyph unicode="&#x26;" horiz-adv-x="1425" d="M82 498.5q0 101.5 38 198t113 173.5l46 48q-39 57 -55.5 123.5t-10.5 134t33.5 131t77.5 114.5q55 57 126.5 86t145.5 29t145.5 -28.5t126.5 -86.5q100 -104 104.5 -252.5t-112.5 -314.5l-194 195q41 68 38.5 109.5t-26.5 66.5q-35 35 -82 35t-82 -35t-35 -83t35 -83 l487 -498l211 215l193 -194l-211 -217l207 -211l-191 -197l-209 213l-43 -43q-72 -76 -165 -115t-197 -39t-197.5 39t-165.5 115q-76 76 -113.5 173t-37.5 198.5zM350 499q0 -48 18.5 -94.5t53.5 -82.5q37 -37 82 -54.5t92 -17.5t92 17.5t80 54.5l43 43l-346 354l-43 -45 q-35 -37 -53.5 -82t-18.5 -93z" />
<glyph unicode="'" horiz-adv-x="395" d="M82 1659h231l-41 -588h-149z" />
<glyph unicode="(" horiz-adv-x="931" d="M82 532q0 80 13.5 184.5t47 214t90 218t141.5 197t202.5 148.5t273.5 75v-258q-109 -16 -184.5 -68.5t-127 -127.5t-79 -161t-42 -166.5t-17.5 -149.5t-3 -106q0 -39 3 -106.5t17.5 -148t42 -166.5t79 -160t127 -127t184.5 -68v-258q-156 14 -273.5 73.5t-202.5 147.5 t-141.5 196t-90 218.5t-47 215t-13.5 183.5z" />
<glyph unicode=")" horiz-adv-x="931" d="M82 -244q109 14 184.5 67.5t126.5 127.5t79 160t42 166.5t17.5 149.5t3.5 105q0 37 -3.5 106t-17.5 149.5t-42 166.5t-79 161t-127 127t-184 69v258q156 -14 273.5 -74.5t202.5 -149t141.5 -197t90 -218t47 -214t13.5 -184.5q0 -82 -13.5 -185t-47 -213.5t-90 -218.5 t-141.5 -196t-202.5 -147t-273.5 -74v258z" />
<glyph unicode="*" horiz-adv-x="737" d="M39 1225v192l209 -26l-129 165l170 99l80 -195l80 195l169 -99l-129 -165l209 26v-192l-209 26l129 -168l-169 -98l-80 195l-80 -195l-170 98l129 168z" />
<glyph unicode="+" horiz-adv-x="1306" d="M98 354v267h420v393h270v-393h422v-267h-422v-393h-270v393h-420z" />
<glyph unicode="," horiz-adv-x="649" d="M82 -301l151 508h334l-284 -508h-201z" />
<glyph unicode="-" horiz-adv-x="999" d="M82 354v267h836v-267h-836z" />
<glyph unicode="." horiz-adv-x="561" d="M82 178q0 39 15.5 76t42 63.5t62.5 43t79 16.5q41 0 76.5 -15.5t63.5 -43t43 -63.5t15 -77q0 -43 -15 -79t-43 -62.5t-63.5 -41.5t-76.5 -15q-84 0 -141.5 57t-57.5 141z" />
<glyph unicode="/" horiz-adv-x="1333" d="M104 -502l850 2058h295l-850 -2058h-295z" />
<glyph unicode="0" horiz-adv-x="1253" d="M82 772q0 70 11 157t38 175t69 172t102 149.5t141 104.5t184 39q102 0 183 -39t141.5 -104.5t102.5 -149.5t68.5 -172t37.5 -175t11 -157q0 -123 -30.5 -262t-96 -258t-169 -198t-248.5 -79t-249 79t-169.5 198t-96 258t-30.5 262zM373 774q0 -74 9 -161t36.5 -161.5 t78 -126t130.5 -51.5t129 51.5t76.5 126t38 160.5t10.5 156q0 68 -9.5 155t-36 163.5t-76.5 130t-132 53.5q-80 0 -130.5 -52.5t-78 -129t-36.5 -161.5t-9 -153z" />
<glyph unicode="1" horiz-adv-x="581" d="M20 1253v283h418v-1536h-286v1253h-132z" />
<glyph unicode="2" horiz-adv-x="1208" d="M82 0l608 760q27 33 56.5 70.5t54 77.5t41 83t16.5 88q0 43 -17.5 81t-47 65.5t-68.5 44t-82 16.5q-61 0 -105 -26.5t-74 -69.5t-45.5 -96.5t-19.5 -106.5h-270q8 109 44 213.5t98.5 186t153.5 132t214 50.5q102 0 191.5 -39t155 -104.5t103 -156t37.5 -190.5 q0 -88 -24.5 -161.5t-63.5 -139t-88 -128t-100 -126.5l-193 -241h467v-283h-1042z" />
<glyph unicode="3" horiz-adv-x="1134" d="M82 459h264q0 -49 18.5 -87t50 -62.5t72.5 -38t86 -13.5q90 0 151.5 61.5t61.5 153.5q0 45 -16 85t-44 70.5t-68 49t-85 18.5h-172v265h172q33 0 61 14t48 38.5t30.5 55.5t10.5 64q0 70 -47 111.5t-115 41.5q-82 0 -121 -51t-39 -129h-266q0 98 29 183t83 146.5t133 97.5 t181 36q92 0 171 -34t135.5 -93.5t89 -138t32.5 -170.5q0 -80 -21.5 -153t-80.5 -128q104 -61 143 -162.5t39 -218.5q0 -109 -37 -200t-102.5 -156.5t-156.5 -102.5t-200 -37q-229 0 -360 126t-131 358z" />
<glyph unicode="4" horiz-adv-x="1304" d="M20 272l822 1264h147v-983h172v-281h-172v-272h-268v272h-701zM494 553h227v348z" />
<glyph unicode="5" horiz-adv-x="1179" d="M41 299l217 166q78 -119 141.5 -163t126.5 -44q47 0 91.5 18.5t77 51t52 79t19.5 101.5q0 53 -19.5 99t-51 80t-76 53.5t-93.5 19.5q-27 0 -61.5 -7.5t-102.5 -27.5l-139 121l160 690h627v-283h-416l-62 -270h5q127 18 221 -13.5t155.5 -98t92 -161.5t30.5 -204 q0 -119 -41 -217.5t-110.5 -168t-162.5 -107.5t-200 -38q-127 0 -246.5 74t-234.5 250z" />
<glyph unicode="6" horiz-adv-x="1187" d="M82 508q0 100 37 190t88 168l440 670h326l-334 -498q98 -6 183 -50t148.5 -115.5t99.5 -166t36 -198.5q0 -115 -41 -212t-111.5 -169t-164 -112t-195.5 -40q-104 0 -197.5 41t-163 112t-110.5 168t-41 212zM356 508q0 -51 18.5 -97t50.5 -80t76 -53.5t93 -19.5t93 19.5 t76 53.5t50 80t18 97t-18 96t-50 79t-76 53.5t-93 19.5t-93 -19.5t-76 -53.5t-50.5 -79t-18.5 -96z" />
<glyph unicode="7" horiz-adv-x="1083" d="M41 1253v283h1124l-776 -1536h-332l654 1253h-670z" />
<glyph unicode="8" horiz-adv-x="1122" d="M82 481q0 111 44 204t122 167q-102 121 -103 281q0 92 34 170.5t91.5 138t132 93.5t158.5 34q82 0 158 -34t133 -93.5t91 -138t34 -170.5q0 -80 -26.5 -151t-76.5 -130q80 -74 123 -167t43 -204q0 -104 -38.5 -196t-105.5 -161t-154 -109t-181 -40q-96 0 -182 40 t-152.5 109t-105.5 161t-39 196zM348 481q0 -47 16.5 -87t44 -70.5t66.5 -48t86 -17.5q45 0 85 17.5t67.5 48t44 70.5t16.5 87q0 92 -59.5 153.5t-153.5 61.5t-153.5 -61.5t-59.5 -153.5zM412 1133q0 -61 42 -106.5t107 -45.5q66 0 108 45.5t42 106.5q0 31 -11.5 58.5 t-32 49t-48 33.5t-58.5 12q-33 0 -60.5 -12t-47 -33.5t-30.5 -49.5t-11 -58z" />
<glyph unicode="9" horiz-adv-x="1310" d="M143 1004q0 115 41 212t112 168.5t164 111.5t195 40q104 0 197.5 -41t163 -111.5t110.5 -168.5t41 -211q0 -100 -36.5 -190.5t-88.5 -168.5l-440 -670h-326l334 498q-98 6 -183 50t-148.5 116t-99.5 166t-36 199zM418 1004q0 -51 18.5 -96.5t50 -79t75.5 -53t93 -19.5 t93.5 19.5t76 53t50 79t18.5 96.5t-18.5 97t-50 79.5t-75.5 53t-94 19.5q-49 0 -93 -19.5t-75.5 -53t-50 -79.5t-18.5 -97z" />
<glyph unicode=":" horiz-adv-x="561" d="M82 178q0 39 15.5 76t42 63.5t62.5 43t79 16.5q41 0 76.5 -15.5t63.5 -43t43 -63.5t15 -77q0 -43 -15 -79t-43 -62.5t-63.5 -41.5t-76.5 -15q-84 0 -141.5 57t-57.5 141zM82 786q0 41 15.5 77t42 63.5t62.5 43t79 15.5q41 0 76.5 -15.5t63.5 -42t43 -63.5t15 -78 t-15 -77.5t-43 -63.5t-63.5 -42t-76.5 -15t-78 15t-63.5 43t-42 63.5t-15.5 76.5z" />
<glyph unicode=";" horiz-adv-x="520" d="M23 -301l151 508h334l-285 -508h-200zM61 786q0 41 15.5 77t42 63.5t62.5 43t79 15.5q41 0 77 -15.5t63.5 -42t43 -63.5t15.5 -78t-15.5 -77.5t-43 -63.5t-63.5 -42t-77 -15t-78 15t-63.5 43t-42 63.5t-15.5 76.5z" />
<glyph unicode="&#x3c;" horiz-adv-x="974" d="M92 397v201l791 387v-299l-396 -194l396 -213v-306z" />
<glyph unicode="=" horiz-adv-x="1019" d="M92 70v307h836v-307h-836zM92 596v307h836v-307h-836z" />
<glyph unicode="&#x3e;" horiz-adv-x="974" d="M92 -27v306l395 213l-395 194v299l791 -387v-201z" />
<glyph unicode="?" horiz-adv-x="1013" d="M92 1067q0 104 21.5 192.5t70.5 154t128 102t194 36.5q94 0 172 -31.5t131 -88t83 -134.5t30 -172q0 -68 -20.5 -124t-51.5 -102t-68 -85t-67.5 -70.5t-51 -57t-20.5 -48.5v-135h-264v135q0 61 20.5 110.5t51 90.5t66.5 75.5t66.5 68.5t51 68.5t20.5 73.5q0 72 -31.5 116 t-111.5 44q-49 0 -79 -19.5t-47 -50t-23.5 -70.5t-6.5 -79h-264zM307 178q0 41 15.5 77t42 63.5t63.5 43t78 15.5t76.5 -15.5t63.5 -43t43.5 -63.5t15.5 -77t-15.5 -78t-43.5 -63.5t-63.5 -41.5t-76.5 -15q-84 0 -141.5 57t-57.5 141z" />
<glyph unicode="@" horiz-adv-x="1107" d="M123 492q0 106 41 200t111.5 163t166 109t201.5 40q57 0 111.5 -19.5t96.5 -55.5t67.5 -85t25.5 -111v-506h-180q-45 -16 -92 -16q-57 0 -107.5 22.5t-88.5 60.5t-59.5 89t-21.5 109q0 70 32 129t83 97t116.5 50t133.5 -12q-14 29 -50 45t-67 16q-72 0 -133 -23.5 t-107.5 -66.5t-73 -103.5t-26.5 -131.5q0 -72 27.5 -131.5t75 -103.5t108.5 -68.5t129 -24.5h293v-164h-293q-109 0 -204 34t-165.5 98.5t-110.5 154.5t-40 205zM578 491.5q0 -36.5 23.5 -66.5t70.5 -30q45 0 68.5 30t23.5 66.5t-23.5 66.5t-68.5 30q-47 0 -70.5 -30 t-23.5 -66.5z" />
<glyph unicode="A" horiz-adv-x="1472" d="M20 0l644 1536h147l641 -1536h-319l-123 295h-545l-121 -295h-324zM561 545h346l-170 409z" />
<glyph unicode="B" horiz-adv-x="1294" d="M143 0v1536h580q100 0 184 -35t143.5 -95t92.5 -140t33 -170q0 -78 -28 -163t-83 -145q72 -66 109.5 -161t37.5 -187q0 -90 -31.5 -170t-91 -140t-142.5 -95t-185 -35h-619zM453 276h270q37 0 69.5 16.5t56 42t37 58.5t13.5 68q0 33 -12.5 65.5t-36 59t-55 44t-68.5 17.5 h-274v-371zM453 901h272q37 0 66.5 15.5t50 41t32 57t11.5 62.5q0 33 -17.5 65t-45 55.5t-62.5 37.5t-72 14h-235v-348z" />
<glyph unicode="C" horiz-adv-x="1519" d="M82 768q0 162 61.5 306.5t166 251t244.5 168.5t300 62q72 0 156 -12t167 -45t160.5 -92t137.5 -154l-220 -211q-39 63 -92 102.5t-108.5 61t-108.5 28.5t-92 7q-96 0 -180 -38t-146.5 -102.5t-99.5 -150.5t-37 -182t37 -182t99.5 -150.5t146.5 -102.5t180 -38q39 0 87 3 t100.5 21.5t106.5 58.5t105 114l226 -207q-82 -106 -162 -168t-158 -92.5t-154.5 -37.5t-150.5 -7q-160 0 -300 62t-244.5 168.5t-166 250t-61.5 307.5z" />
<glyph unicode="D" horiz-adv-x="1361" d="M143 0v1536h367q176 0 318.5 -53t242.5 -153.5t154.5 -242t54.5 -315.5t-54.5 -316.5t-154.5 -243.5t-242.5 -156.5t-318.5 -55.5h-367zM449 266h55q223 0 346 132t123 374t-123 370t-346 128h-55v-1004z" />
<glyph unicode="E" horiz-adv-x="1091" d="M143 0v1536h867v-285h-559v-354h493v-258h-493v-354h559v-285h-867z" />
<glyph unicode="F" horiz-adv-x="1091" d="M143 0v1536h867v-285h-559v-354h510v-260h-510v-637h-308z" />
<glyph unicode="G" horiz-adv-x="1638" d="M82 768q0 160 60.5 303t165 251t244.5 171t302 63q174 0 320.5 -64.5t263.5 -193.5l-209 -231q-72 96 -165 133t-210 37q-94 0 -178 -38t-146.5 -102.5t-98.5 -149.5t-36 -179t36 -180t97.5 -150.5t145.5 -102.5t180 -38q84 0 172 21.5t158 68.5v252h-379v256h690v-895 h-283l-16 84q-84 -61 -183.5 -82.5t-199.5 -21.5q-160 0 -294 65.5t-231.5 175t-151.5 251.5t-54 296z" />
<glyph unicode="H" horiz-adv-x="1378" d="M143 0v1536h308v-639h477v639h307v-1536h-307v637h-477v-637h-308z" />
<glyph unicode="I" horiz-adv-x="593" d="M143 0v1536h308v-1536h-308z" />
<glyph unicode="J" horiz-adv-x="751" d="M20 12v316q47 -18 81 -28.5t59.5 -14.5t45 -5t38.5 -1q31 0 44 19t13 30v1208h307v-1241q0 -147 -67.5 -231t-173.5 -84q-82 0 -162 4t-185 28z" />
<glyph unicode="K" horiz-adv-x="1339" d="M143 0v1536h308v-596l483 596h395l-647 -768l647 -768h-395l-483 596v-596h-308z" />
<glyph unicode="L" horiz-adv-x="1015" d="M143 0v1536h308v-1251h524v-285h-832z" />
<glyph unicode="M" horiz-adv-x="1701" d="M143 0v1536h213l494 -725l496 725h213v-1536h-328v881l-381 -559l-379 559v-881h-328z" />
<glyph unicode="N" horiz-adv-x="1433" d="M143 0v1536h213l605 -881v881h329v-1536h-219l-598 862v-862h-330z" />
<glyph unicode="O" horiz-adv-x="1748" d="M82 768q0 162 62.5 306.5t171 251t252 168.5t306.5 62q162 0 306.5 -62t253 -168.5t171 -251t62.5 -306.5q0 -164 -62.5 -307.5t-171 -251t-253 -168.5t-306.5 -61q-164 0 -307 61t-251.5 168.5t-171 251t-62.5 307.5zM389 768q0 -98 39 -186t104.5 -154t154.5 -103.5 t187 -37.5t187.5 37.5t155 103.5t104.5 154t39 186t-39 186t-104.5 154t-154.5 103.5t-188 37.5q-100 0 -188 -37.5t-154.5 -103.5t-104.5 -154t-38 -186z" />
<glyph unicode="P" horiz-adv-x="1175" d="M143 0v1536h580q88 0 167 -38t138 -102.5t93 -150.5t34 -184t-34 -184t-93 -148.5t-138 -98.5t-167 -36h-279v-594h-301zM444 897h285q27 0 50.5 15.5t40 39t26.5 52t10 57.5t-10 59.5t-27.5 55t-40 41t-49.5 16.5h-285v-336z" />
<glyph unicode="Q" horiz-adv-x="1748" d="M82 768q0 162 62.5 306.5t171 251t252 168.5t306.5 62q162 0 306.5 -62t253 -168.5t171 -251t62.5 -306.5q0 -135 -43 -257t-121 -220l148 -148l-189 -186l-153 152q-94 -61 -203 -95t-232 -34q-164 0 -307 61t-251.5 168.5t-171 251t-62.5 307.5zM389 768q0 -98 39 -186 t104.5 -154t154.5 -103.5t187 -37.5q109 0 209 47l-168 168l189 188l180 -180q35 57 55.5 121.5t20.5 136.5q0 98 -39 186t-104.5 154t-154.5 103.5t-188 37.5q-100 0 -188 -37.5t-154.5 -103.5t-104.5 -154t-38 -186z" />
<glyph unicode="R" horiz-adv-x="1257" d="M143 0v1536h578q88 0 168 -37t138 -101.5t93 -150.5t35 -184q0 -123 -54 -226.5t-153 -168.5l309 -668h-333l-275 594h-205v-594h-301zM444 897h277q27 0 52.5 15.5t44 39t29.5 53t11 58.5q0 31 -11 61.5t-29.5 55t-44 40t-52.5 15.5h-277v-338z" />
<glyph unicode="S" horiz-adv-x="1124" d="M63 373l275 127q20 -80 71.5 -140.5t141.5 -60.5q31 0 65.5 11.5t62.5 30.5t46 48t18 64q0 49 -44 82.5t-109.5 64.5t-143 65.5t-143 88t-109.5 132.5t-44 197q0 92 33.5 178.5t93 152t141.5 104t178 38.5q160 0 274.5 -89t167.5 -236l-280 -131q-16 55 -56 96t-100 41 q-66 0 -109.5 -45t-43.5 -109q0 -49 44 -80.5t109.5 -61.5t143 -64.5t143 -89t109.5 -134t44 -200.5q0 -104 -39.5 -190.5t-108.5 -150t-159 -98t-190 -34.5q-92 0 -170 28.5t-139.5 80.5t-105.5 125t-67 159z" />
<glyph unicode="T" horiz-adv-x="1234" d="M20 1249v287h1194v-287h-442v-1249h-309v1249h-443z" />
<glyph unicode="U" horiz-adv-x="1474" d="M123 500v1036h313v-1036q0 -37 20.5 -76t59.5 -70.5t94.5 -52t126.5 -20.5q72 0 128.5 20.5t94 52t58 70.5t20.5 76v1036h314v-1036q0 -98 -49.5 -191.5t-132.5 -166t-195.5 -117.5t-237.5 -45q-123 0 -234.5 45t-196.5 117.5t-134 165.5t-49 192z" />
<glyph unicode="V" horiz-adv-x="1320" d="M-61 1536h342l381 -924l380 924h340l-639 -1536h-163z" />
<glyph unicode="W" horiz-adv-x="2084" d="M-82 1536h348l500 -1014l113 234l-383 780h327l219 -449l224 449h325l-385 -780l115 -236l500 1016h346l-754 -1536h-160l-211 424l-206 -424h-160z" />
<glyph unicode="X" horiz-adv-x="1388" d="M20 0l490 772l-483 764h366l301 -475l301 475h367l-483 -764l489 -772h-369l-305 481l-305 -481h-369z" />
<glyph unicode="Y" horiz-adv-x="1255" d="M-41 1536h369l299 -475l301 475h368l-516 -813v-723h-307v723z" />
<glyph unicode="Z" horiz-adv-x="1351" d="M0 0l745 1247h-677v289h1218l-749 -1251h753v-285h-1290z" />
<glyph unicode="[" horiz-adv-x="630" d="M20 -502v2038h590v-260h-284v-1518h284v-260h-590z" />
<glyph unicode="\" horiz-adv-x="1333" d="M104 1556h295l850 -2058h-295z" />
<glyph unicode="]" horiz-adv-x="630" d="M16 -242h283l6 1518h-282v260h587l-6 -2038h-588v260z" />
<glyph unicode="^" horiz-adv-x="841" d="M-387 1155l285 334h206l285 -334h-264l-125 121l-123 -121h-264z" />
<glyph unicode="_" horiz-adv-x="1429" d="M143 0v276h1143v-276h-1143z" />
<glyph unicode="`" horiz-adv-x="720" d="M-252 1536h307l162 -362h-217z" />
<glyph unicode="a" d="M82 481q0 104 35 195.5t95 159t140 107.5t172 40q168 0 291 -123v103h307v-963h-307v102q-122 -122 -288 -122h-3q-92 0 -172 39.5t-140 107.5t-95 159t-35 195zM389 481q0 -51 16.5 -95t45 -77t67.5 -52t84 -19q43 0 82 19t68.5 52t46 77t16.5 95t-16.5 95.5t-46 77 t-68.5 52t-82 19.5q-45 0 -84 -19.5t-67.5 -52t-45 -77t-16.5 -95.5z" />
<glyph unicode="b" d="M143 0v1536h308v-676q123 123 288 123q92 0 173 -40t141.5 -107.5t95.5 -159t35 -195.5t-35 -195t-95.5 -159t-141.5 -107.5t-173 -39.5q-166 0 -288 122v-102h-308zM451 481q0 -51 16 -95t45 -77t67.5 -52t84.5 -19q43 0 81.5 19t68.5 52t46.5 77t16.5 95t-16.5 95.5 t-46.5 77t-68.5 52t-81.5 19.5q-45 0 -84 -19.5t-68 -52t-45 -77t-16 -95.5z" />
<glyph unicode="c" horiz-adv-x="1052" d="M82 481q0 104 40 195.5t107.5 159t159.5 107.5t197 40q135 0 247.5 -63.5t178.5 -174.5l-230 -157q-29 53 -80 85t-116 32q-47 0 -88 -17.5t-72 -48.5t-48.5 -72t-17.5 -86q0 -47 17.5 -88t48.5 -71.5t72 -48t88 -17.5q66 0 117 33t79 86l230 -160 q-66 -106 -178.5 -170.5t-247.5 -64.5q-104 0 -196.5 38.5t-160 107.5t-107.5 160t-40 195z" />
<glyph unicode="d" d="M82 481q0 104 35 195.5t95 159t140 107.5t172 40q86 0 159 -32.5t132 -90.5v676h307v-1536h-307v100q-59 -57 -132 -88.5t-159 -31.5q-92 0 -172 38.5t-140 107.5t-95 160t-35 195zM389 481q0 -51 16.5 -95t45 -77t67.5 -52t84 -19q43 0 82 19t68.5 52t46 77t16.5 95 q0 49 -16.5 94.5t-46 78t-68.5 52t-82 19.5q-45 0 -84 -19.5t-67.5 -52t-45 -78t-16.5 -94.5z" />
<glyph unicode="e" horiz-adv-x="1146" d="M82 481q0 104 40 195.5t107.5 159t158.5 107.5t196 40q104 0 195 -40t159 -107.5t107.5 -158.5t39.5 -196v-61h-694q10 -82 62.5 -128t130.5 -46q59 0 114.5 32.5t85.5 88.5l217 -164q-72 -104 -180 -163.5t-237 -59.5q-104 0 -195.5 39.5t-159 107.5t-107.5 159t-40 195 zM414 600h372q-25 57 -76 91t-110 34q-47 0 -99 -29.5t-87 -95.5z" />
<glyph unicode="f" horiz-adv-x="839" d="M82 690v273h145v206q0 109 43 189t117 127t170 58q29 3 58 3q69 0 143 -18v-303q-27 16 -65 24q-22 5 -43 5q-15 0 -30 -3q-36 -6 -60.5 -30.5t-24.5 -71.5v-186h223v-273h-223v-690h-308v690h-145z" />
<glyph unicode="g" d="M82 481q0 104 35 195.5t95 159t140 107.5t172 40q168 0 291 -123v103h307v-936q0 -102 -31.5 -200.5t-115.5 -170.5q-80 -68 -187 -106q-98 -33 -200 -33h-22q-113 4 -221.5 55t-190.5 162l229 162q53 -53 108.5 -77t105.5 -26h11q44 0 81 15q42 16 69 45q33 33 45 71.5 t12 81.5v96q-122 -122 -288 -122h-3q-92 0 -172 39.5t-140 107.5t-95 159t-35 195zM389 481q0 -51 16.5 -95t45 -77t67.5 -52t84 -19q43 0 82 19t68.5 52t46 77t16.5 95t-16.5 95.5t-46 77t-68.5 52t-82 19.5q-45 0 -84 -19.5t-67.5 -52t-45 -77t-16.5 -95.5z" />
<glyph unicode="h" d="M143 0v1536h308v-676q59 57 130.5 90t157.5 33q205 0 314.5 -115.5t109.5 -345.5v-522h-307v522q0 98 -53 150.5t-139 52.5q-45 0 -84 -19.5t-68 -52t-45 -78t-16 -94.5v-481h-308z" />
<glyph unicode="i" horiz-adv-x="620" d="M113 1323q0 82 57 139.5t139 57.5q86 0 142.5 -57.5t56.5 -139.5q0 -86 -56.5 -142.5t-142.5 -56.5q-82 0 -139 56.5t-57 142.5zM156 0v963h307v-963h-307z" />
<glyph unicode="j" horiz-adv-x="600" d="M102 1323q0 82 57.5 139.5t139.5 57.5q86 0 142.5 -57.5t56.5 -139.5q0 -86 -56.5 -142.5t-142.5 -56.5q-82 0 -139.5 56.5t-57.5 142.5zM145 -498v1461h308v-1461h-308z" />
<glyph unicode="k" horiz-adv-x="1138" d="M143 0v1536h308v-987l311 414h356l-362 -482l362 -481h-356l-311 414v-414h-308z" />
<glyph unicode="l" horiz-adv-x="593" d="M143 0v1536h308v-1536h-308z" />
<glyph unicode="m" horiz-adv-x="1763" d="M143 0v963h308v-103q53 57 118.5 90t141.5 33q98 0 170.5 -45t115.5 -131q53 86 137.5 131t182.5 45q166 0 255 -112.5t89 -311.5v-559h-315v522q0 92 -29 147.5t-100 55.5q-72 0 -116 -55.5t-44 -147.5v-522h-318v522q0 92 -28.5 147.5t-100.5 55.5q-45 0 -75.5 -19.5 t-49 -52t-26.5 -78t-8 -94.5v-481h-308z" />
<glyph unicode="n" horiz-adv-x="1245" d="M143 0v963h308v-103q59 57 130.5 90t157.5 33q403 0 404 -461v-522h-307v522q0 98 -43 150.5t-129 52.5q-45 0 -84 -19.5t-68 -52t-45 -78t-16 -94.5v-481h-308z" />
<glyph unicode="o" horiz-adv-x="1167" d="M82 481q0 104 40 195.5t107.5 159t158.5 107.5t196 40q104 0 195 -40t159 -107.5t107.5 -159t39.5 -195.5t-39.5 -195t-107.5 -159t-159 -107.5t-195 -39.5t-195.5 39.5t-159 107.5t-107.5 159t-40 195zM344 481q0 -49 18.5 -93t51 -76.5t77 -51t93.5 -18.5t93 18.5 t76.5 51t51 76.5t18.5 93t-18.5 93t-51 77t-76.5 51.5t-93 18.5t-93.5 -18.5t-77 -51.5t-51 -77t-18.5 -93z" />
<glyph unicode="p" d="M143 -498v1461h308v-103q123 123 288 123q92 0 173 -40t141.5 -107.5t95.5 -159t35 -195.5t-35 -195t-95.5 -159t-141.5 -107.5t-173 -39.5q-166 0 -288 122v-600h-308zM451 481q0 -51 16 -95t45 -77t67.5 -52t84.5 -19q43 0 81.5 19t68.5 52t46.5 77t16.5 95t-16.5 95.5 t-46.5 77t-68.5 52t-81.5 19.5q-45 0 -84 -19.5t-68 -52t-45 -77t-16 -95.5z" />
<glyph unicode="q" d="M82 481q0 104 35 195.5t95 159t140 107.5t172 40q168 0 291 -123v103h307v-1461h-307v600q-122 -122 -288 -122h-3q-92 0 -172 39.5t-140 107.5t-95 159t-35 195zM389 481q0 -51 16.5 -95t45 -77t67.5 -52t84 -19q43 0 82 19t68.5 52t46 77t16.5 95t-16.5 95.5t-46 77 t-68.5 52t-82 19.5q-45 0 -84 -19.5t-67.5 -52t-45 -77t-16.5 -95.5z" />
<glyph unicode="r" horiz-adv-x="790" d="M143 0v963h308v-103q123 123 288 123v-315q-39 16 -75 16q-86 0 -149.5 -49t-63.5 -154v-481h-308z" />
<glyph unicode="s" horiz-adv-x="858" d="M39 266l248 92q16 -53 50 -89t93 -36q31 0 65.5 15.5t34.5 52.5q0 31 -33.5 50.5t-84 34.5t-108.5 33.5t-108.5 49.5t-84 78t-33.5 123q0 70 30.5 128t82 99t116 63.5t129.5 22.5q129 0 216 -68.5t143 -177.5l-254 -94q-10 35 -38 63.5t-67 28.5q-27 0 -49 -13t-22 -42 q0 -27 33.5 -43t83.5 -32.5t108.5 -38t109 -55.5t84 -87t33.5 -131q0 -74 -36 -132.5t-91 -98t-123.5 -61t-136.5 -21.5q-141 0 -243.5 76.5t-147.5 209.5z" />
<glyph unicode="t" horiz-adv-x="757" d="M41 690v273h184v348h307v-348h185v-273h-185v-690h-307v690h-184z" />
<glyph unicode="u" horiz-adv-x="1126" d="M102 420v543h308v-531q0 -80 36.5 -137t116.5 -57t117 57t37 137v531h307v-543q0 -104 -33 -185t-93 -138.5t-145 -87t-190 -29.5q-104 0 -189 29.5t-145.5 87t-93.5 138t-33 185.5z" />
<glyph unicode="v" horiz-adv-x="1089" d="M20 963h306l219 -611l217 611h307l-344 -963h-360z" />
<glyph unicode="w" horiz-adv-x="1583" d="M20 963h310l170 -570l149 570h285l149 -570l170 570h310l-289 -963h-332l-149 569l-152 -569h-332z" />
<glyph unicode="x" horiz-adv-x="1087" d="M20 963h355l168 -244l168 244h356l-346 -502l315 -461h-354l-139 201l-137 -201h-357l318 461z" />
<glyph unicode="y" horiz-adv-x="1040" d="M20 963h310l190 -529l189 529h311l-524 -1461h-310l179 498z" />
<glyph unicode="z" horiz-adv-x="1032" d="M41 0l434 690h-393v273h909l-432 -687h432v-276h-950z" />
<glyph unicode="{" horiz-adv-x="753" d="M72 438v189q55 25 85.5 48t46 53t18.5 70t3 95v348q0 47 15.5 102.5t50.5 103.5t89 80t132 32h170v-248q-55 -4 -89 -8.5t-51.5 -12.5t-22.5 -24.5t-5 -44.5v-355q0 -82 -25.5 -169t-101.5 -165q76 -78 101.5 -164.5t25.5 -168.5v-357q0 -29 5 -45t22.5 -24.5t51.5 -12.5 t89 -8v-248h-170q-78 0 -132 32t-89 79t-50.5 103.5t-15.5 103.5v350v45.5t-2 44.5q-2 41 -12 70q-4 12 -11 23.5t-22.5 23.5t-41 26.5t-64.5 32.5z" />
<glyph unicode="|" horiz-adv-x="512" d="M133 -465v2001h246v-2001h-246z" />
<glyph unicode="}" horiz-adv-x="753" d="M72 -248q55 4 89 8t51 12.5t22.5 25t5.5 44.5v357q0 82 25.5 169t101.5 164q-76 78 -101.5 165t-25.5 169v355q0 29 -5.5 45t-22.5 24t-51 12.5t-89 8.5v248h170q78 0 132 -32t89 -80t50 -103.5t15 -102.5v-348q0 -55 3.5 -95t18.5 -70t46 -53.5t86 -47.5v-189 q-80 -37 -105.5 -60.5t-33.5 -45.5q-10 -29 -13 -70q-2 -23 -2 -45v-45v-350q0 -47 -15 -103.5t-50 -103.5t-89.5 -79t-131.5 -32h-170v248z" />
<glyph unicode="~" horiz-adv-x="1556" d="M307 436q20 39 46 83t57.5 82t72.5 62.5t92 24.5q49 0 94.5 -20.5t86.5 -46t75.5 -46t61.5 -20.5q16 0 31.5 17.5t29 42t23.5 49t16 36.5l168 -69q-18 -41 -42.5 -86t-56.5 -83t-74 -62.5t-95 -24.5q-49 0 -94 20.5t-86 46t-76 46t-62 20.5q-18 0 -33.5 -17.5t-27.5 -41 t-21.5 -48t-15.5 -36.5z" />
<glyph unicode="&#xa1;" horiz-adv-x="643" d="M82 1360q0 82 57.5 139t139.5 57q84 0 141 -57t57 -139t-57.5 -139.5t-140.5 -57.5q-82 0 -139.5 57.5t-57.5 139.5zM125 0v1030h307v-1030h-307z" />
<glyph unicode="&#xa2;" horiz-adv-x="1052" d="M82 481q0 94 32.5 177t89 149.5t134.5 111t168 58.5v176h143v-174q117 -14 210 -74.5t153 -159.5l-230 -157q-45 84 -133 108v-432q43 12 77 41t56 70l230 -160q-59 -94 -152.5 -155.5t-210.5 -75.5v-150h-143v152q-90 14 -168 58t-134.5 109.5t-89 149.5t-32.5 178z M360 481q0 -72 40 -129t106 -82v420q-66 -25 -106 -81t-40 -128z" />
<glyph unicode="&#xa3;" horiz-adv-x="1155" d="M61 -23v164l101 68q70 47 110.5 86t57 95t12.5 143.5t-25 232.5h-157v250h149q14 125 51 206t80 134q68 84 162 132t193 48h299v-252h-299q-33 0 -82 -19.5t-92 -72.5q-20 -23 -41 -64t-31 -112h545v-250h-537q12 -86 17.5 -161t1 -139.5t-18.5 -122.5t-45 -114h582v-252 h-1033z" />
<glyph unicode="&#xa4;" horiz-adv-x="1290" d="M119 262l82 82q-41 70 -59.5 133.5t-18.5 136.5q0 74 18.5 137.5t59.5 133.5l-82 82l160 159l81 -84q70 41 136.5 62.5t148.5 21.5t148.5 -21.5t136.5 -62.5l82 84l159 -159l-81 -82q41 -70 59 -133.5t18 -137.5t-18.5 -137t-58.5 -133l81 -82l-159 -160l-82 84 q-70 -41 -136.5 -62.5t-148.5 -21.5t-148.5 21.5t-136.5 62.5l-81 -84zM362 616q0 -55 23 -105t61.5 -87t89 -59.5t109.5 -22.5q57 0 108.5 22.5t89.5 59.5t60.5 87t22.5 105q0 57 -20.5 106.5t-58.5 86.5t-89 57.5t-113 20.5q-61 0 -113.5 -20.5t-90.5 -57.5t-58.5 -86 t-20.5 -107z" />
<glyph unicode="&#xa5;" d="M61 0v276h1143v-276h-1143zM326 770v201l790 387v-299l-395 -195l395 -213v-305z" />
<glyph unicode="&#xa6;" horiz-adv-x="409" d="M98 477h215v-971h-215v971zM98 750v970h215v-970h-215z" />
<glyph unicode="&#xa7;" horiz-adv-x="1267" d="M145 184l228 191q20 -35 44.5 -80t56.5 -84t71 -65.5t86 -26.5q49 0 83 35.5t34 83.5q0 45 -43 78.5t-109 66.5t-140.5 69.5t-140 88t-108.5 123t-43 174.5q0 88 34.5 162.5t92.5 138.5q-23 45 -36 92t-13 96q0 129 42 212t109.5 126t153.5 48t175 -20.5t172 -82 t146 -133.5l-219 -199q-14 18 -38.5 44t-54.5 49.5t-60.5 36.5t-57.5 5q-31 -10 -49 -28.5t-18 -53.5q0 -45 42 -78.5t103.5 -66.5t135 -70t135 -87t103.5 -121t42 -171q0 -80 -32 -151.5t-79 -132.5q31 -47 43.5 -101.5t12.5 -113.5q0 -152 -50.5 -245t-131.5 -134 t-182 -36t-201.5 49t-189.5 125t-149 187zM465 840q16 -43 78 -78l231 -125q47 59 33 102t-78 78l-231 125q-49 -59 -33 -102z" />
<glyph unicode="&#xa8;" horiz-adv-x="1304" d="M197 1798q0 39 15 76t42 63.5t62.5 43t78.5 16.5q41 0 77 -15.5t63.5 -43t43 -63.5t15.5 -77q0 -43 -16.5 -79t-43 -62.5t-63.5 -42t-76 -15.5q-84 0 -141 57.5t-57 141.5zM723 1798q0 39 15.5 76t42 63.5t62.5 43t79 16.5q41 0 76.5 -15.5t63.5 -43t43 -63.5t15 -77 q0 -43 -16.5 -79t-43 -62.5t-63 -42t-75.5 -15.5q-84 0 -141.5 57.5t-57.5 141.5z" />
<glyph unicode="&#xa9;" horiz-adv-x="1509" d="M61 768q0 137 55.5 260t149.5 213t220 143.5t268 53.5q143 0 269 -53.5t220 -143.5t149.5 -213t55.5 -260q0 -139 -55.5 -261t-149.5 -212t-220 -143.5t-269 -53.5q-141 0 -267.5 53.5t-220.5 143.5t-149.5 212t-55.5 261zM242 768q0 -102 41 -192.5t110.5 -157 t162.5 -105.5t198 -39q106 0 200.5 39t164 105.5t109.5 157t40 192.5t-40 192.5t-109.5 157t-164 105.5t-200.5 39q-104 0 -197.5 -39t-163 -105.5t-110.5 -157t-41 -192.5zM367 772q0 76 30.5 143.5t82.5 117.5t122 80t148 30q111 0 182.5 -42t114.5 -93q51 -59 75 -134 l-180 -55q-12 37 -37 66q-23 25 -59.5 45t-95.5 20q-37 0 -71 -14t-59.5 -38t-40 -56.5t-14.5 -69.5t14.5 -69.5t40 -56t59.5 -38t71 -14.5q23 0 49 4t52 16.5t47.5 35t37.5 61.5q27 -8 59.5 -15.5t61.5 -13.5q32 -8 65 -14q-27 -76 -78 -133q-43 -51 -114.5 -92.5 t-179.5 -41.5q-78 0 -148 30t-122 80t-82.5 117.5t-30.5 143.5z" />
<glyph unicode="&#xab;" horiz-adv-x="831" d="M82 492l405 405l117 -115l-291 -290l291 -291l-117 -115zM389 492l406 405l116 -115l-290 -290l290 -291l-116 -115z" />
<glyph unicode="&#xad;" horiz-adv-x="999" d="M82 354v267h836v-267h-836z" />
<glyph unicode="&#xae;" horiz-adv-x="1509" d="M61 768q0 137 55.5 260t149.5 213t220 143.5t268 53.5q143 0 269 -53.5t220 -143.5t149.5 -213t55.5 -260q0 -139 -55.5 -261t-149.5 -212t-220 -143.5t-269 -53.5q-141 0 -267.5 53.5t-220.5 143.5t-149.5 212t-55.5 261zM242 768q0 -102 41 -192.5t110.5 -157 t162.5 -105.5t198 -39q106 0 200.5 39t164 105.5t109.5 157t40 192.5t-40 192.5t-109.5 157t-164 105.5t-200.5 39q-104 0 -197.5 -39t-163 -105.5t-110.5 -157t-41 -192.5zM551 422v692h219q49 0 93 -16.5t78 -46t53.5 -69.5t19.5 -85q0 -102 -109 -176l170 -299h-198 l-148 262h-2v-262h-176zM727 842h43q33 0 50.5 16t17.5 39t-18.5 40t-49.5 17h-43v-112z" />
<glyph unicode="&#xb0;" horiz-adv-x="976" d="M123 1192q0 76 28.5 142.5t79 115.5t117 77.5t141.5 28.5q76 0 142.5 -28.5t116 -77.5t78 -115.5t28.5 -142.5t-28.5 -142.5t-78 -116.5t-116 -79t-142.5 -29t-142 29t-116.5 79t-79 116.5t-28.5 142.5zM346 1192q0 -59 42 -101t101 -42t100.5 42t41.5 101t-41 100 t-101 41q-59 0 -101 -41t-42 -100z" />
<glyph unicode="&#xb1;" d="M61 0h1143v276h-1143v-276zM61 633v254h437v243h270v-243h436v-254h-436v-266h-270v266h-437z" />
<glyph unicode="&#xb4;" horiz-adv-x="0" d="M-115 1174l162 362h307l-252 -362h-217z" />
<glyph unicode="&#xb5;" horiz-adv-x="1320" d="M143 -420v1383h301v-445q0 -80 32 -131t80 -75.5t104.5 -21.5t104.5 29.5t80 76.5t32 122v445h301v-963h-240l-41 98q-49 -72 -115.5 -102.5t-131 -27.5t-121 38t-85.5 92v-518h-301z" />
<glyph unicode="&#xb6;" horiz-adv-x="1044" d="M61 1053q0 100 39 188t105.5 153.5t156 103.5t189.5 38h309v-1536h-121v1417h-118v-1417h-119v573q-92 14 -172 55.5t-140.5 104t-94.5 143t-34 177.5z" />
<glyph unicode="&#xb7;" horiz-adv-x="561" d="M82 489q0 39 15.5 76t42 63.5t62.5 43t79 16.5q41 0 76.5 -15.5t63.5 -43t43 -63.5t15 -77q0 -43 -15 -78.5t-43 -62t-63.5 -42t-76.5 -15.5q-84 0 -141.5 57.5t-57.5 140.5z" />
<glyph unicode="&#xb8;" horiz-adv-x="1185" d="M535 -299q53 0 93 18.5t40 71.5q0 41 -37 58.5t-90 13.5q4 12 11 35.5t13 48.5q8 29 17 61l123 -8q-20 0 -31.5 -26.5t-16.5 -49.5q37 0 70 -8t58.5 -24.5t41 -45t15.5 -67.5q0 -61 -29 -97t-74 -54.5t-99 -22.5t-105 -4v100z" />
<glyph unicode="&#xbb;" horiz-adv-x="831" d="M82 201l291 291l-291 290l117 115l405 -405l-405 -406zM389 201l291 291l-291 290l117 115l405 -405l-405 -406z" />
<glyph unicode="&#xbf;" horiz-adv-x="1026" d="M100 410q0 102 43 179t95.5 133t95.5 98t43 77v135h266v-135q0 -92 -43 -157.5t-95 -120t-95 -103.5t-43 -106q0 -41 22.5 -76t55 -56.5t71.5 -26.5t72 15.5t55.5 69.5t22.5 133h264q0 -176 -61.5 -284.5t-153.5 -158t-199.5 -43t-200 58.5t-154 146.5t-61.5 221.5z M317 1358q0 43 16.5 79t43 62.5t62.5 41.5t77 15q84 0 141.5 -57t57.5 -141q0 -41 -15.5 -77t-42 -62.5t-62.5 -43t-79 -16.5q-41 0 -77 15.5t-63.5 43t-43 63.5t-15.5 77z" />
<glyph unicode="&#xc0;" horiz-adv-x="1472" d="M20 0l644 1536h147l641 -1536h-319l-123 295h-545l-121 -295h-324zM362 2025h306l163 -362h-217zM561 545h346l-170 409z" />
<glyph unicode="&#xc1;" horiz-adv-x="1472" d="M20 0l644 1536h147l641 -1536h-319l-123 295h-545l-121 -295h-324zM561 545h346l-170 409zM621 1667l161 363h308l-252 -363h-217z" />
<glyph unicode="&#xc2;" horiz-adv-x="1472" d="M20 0l644 1536h147l641 -1536h-319l-123 295h-545l-121 -295h-324zM348 1663l285 334h207l284 -334h-264l-125 119l-123 -119h-264zM561 545h346l-170 409z" />
<glyph unicode="&#xc3;" horiz-adv-x="1472" d="M20 0l644 1536h147l641 -1536h-319l-123 295h-545l-121 -295h-324zM276 1794q51 84 100.5 146.5t107 92t128 17.5t166.5 -78q10 -6 25.5 -18t33 -24.5t34 -22t28.5 -9.5t26.5 18.5t30 43.5t26.5 48.5t17 33.5l199 -98q-49 -86 -97 -150.5t-106.5 -93.5t-131 -16.5 t-167.5 77.5q-10 8 -25.5 20.5t-32.5 25t-33.5 20.5t-29.5 8q-12 0 -26 -18.5t-28.5 -43t-27 -48t-16.5 -33.5zM561 545h346l-170 409z" />
<glyph unicode="&#xc4;" horiz-adv-x="1472" d="M20 0l644 1536h147l641 -1536h-319l-123 295h-545l-121 -295h-324zM274 1860q0 39 15.5 75.5t42 63t62.5 43t79 16.5q41 0 77 -15t63.5 -43t43 -63.5t15.5 -76.5q0 -43 -15.5 -79t-43 -62.5t-63.5 -42t-77 -15.5q-84 0 -141.5 57.5t-57.5 141.5zM561 545h346l-170 409z M801 1860q0 39 15 75.5t42 63t62.5 43t78.5 16.5q41 0 77 -15t63.5 -43t43 -63.5t15.5 -76.5q0 -43 -15.5 -79t-43 -62.5t-63.5 -42t-77 -15.5q-84 0 -141 57.5t-57 141.5z" />
<glyph unicode="&#xc5;" horiz-adv-x="1472" d="M20 0l644 1536h147l641 -1536h-319l-123 295h-545l-121 -295h-324zM518 1733q0 45 17.5 85t47 68.5t69.5 46t85 17.5q43 0 83 -17.5t70 -46t47 -68.5t17 -85t-17 -84t-47 -69t-70 -46t-83 -16q-45 0 -85 16t-69.5 46t-47 69t-17.5 84zM561 545h346l-170 409zM674 1733 q0 -27 17.5 -45.5t45.5 -18.5q25 0 43.5 19.5t18.5 44.5q0 29 -18.5 47t-43.5 18q-27 0 -45 -18.5t-18 -46.5z" />
<glyph unicode="&#xc6;" horiz-adv-x="1873" d="M61 0l967 1536h784v-252h-585v-377h497v-252h-497v-403h585v-252h-839v397h-367l-246 -397h-299zM764 647h209v326z" />
<glyph unicode="&#xc7;" horiz-adv-x="1519" d="M82 768q0 162 61.5 306.5t166 251t244.5 168.5t300 62q72 0 156 -12t167 -45t160.5 -92t137.5 -154l-220 -211q-39 63 -92 102.5t-108.5 61t-108.5 28.5t-92 7q-96 0 -180 -38t-146.5 -102.5t-99.5 -150.5t-37 -182t37 -182t99.5 -150.5t146.5 -102.5t180 -38q39 0 87 3 t100.5 21.5t106.5 58.5t105 114l226 -207q-82 -106 -162 -168t-158 -92.5t-154.5 -37.5t-150.5 -7q-160 0 -300 62t-244.5 168.5t-166 250t-61.5 307.5zM770 -299q53 0 93 18.5t40 71.5q0 41 -37 58.5t-90 13.5q4 12 11.5 35.5t13.5 48.5q8 29 16 61l123 -8 q-20 0 -31.5 -26.5t-15.5 -49.5q37 0 69.5 -8t58.5 -24.5t41 -45t15 -67.5q0 -61 -28.5 -97t-73.5 -54.5t-99.5 -22.5t-105.5 -4v100z" />
<glyph unicode="&#xc8;" horiz-adv-x="1091" d="M143 0v1536h867v-285h-559v-354h493v-258h-493v-354h559v-285h-867zM362 2025h306l163 -362h-217z" />
<glyph unicode="&#xc9;" horiz-adv-x="1091" d="M143 0v1536h867v-285h-559v-354h493v-258h-493v-354h559v-285h-867zM455 1667l161 363h308l-252 -363h-217z" />
<glyph unicode="&#xca;" horiz-adv-x="1091" d="M143 0v1536h867v-285h-559v-354h493v-258h-493v-354h559v-285h-867zM199 1663l284 334h207l285 -334h-264l-125 119l-123 -119h-264z" />
<glyph unicode="&#xcb;" horiz-adv-x="1091" d="M121 1860q0 39 15.5 75.5t42 63t62 43t78.5 16.5q41 0 77 -15t63.5 -43t43 -63.5t15.5 -76.5q0 -43 -15.5 -79t-43 -62.5t-63.5 -42t-77 -15.5q-84 0 -141 57.5t-57 141.5zM143 0v1536h867v-285h-559v-354h493v-258h-493v-354h559v-285h-867zM647 1860q0 39 15.5 75.5 t42 63t62.5 43t79 16.5q41 0 76.5 -15t63.5 -43t43 -63.5t15 -76.5q0 -43 -15 -79t-43 -62.5t-63.5 -42t-76.5 -15.5q-84 0 -141.5 57.5t-57.5 141.5z" />
<glyph unicode="&#xcc;" horiz-adv-x="593" d="M-74 2025h307l162 -362h-217zM143 0v1536h308v-1536h-308z" />
<glyph unicode="&#xcd;" horiz-adv-x="593" d="M143 0v1536h308v-1536h-308zM184 1667l162 363h307l-252 -363h-217z" />
<glyph unicode="&#xce;" horiz-adv-x="593" d="M-90 1663l285 334h204l285 -334h-264l-123 119l-125 -119h-262zM143 0v1536h308v-1536h-308z" />
<glyph unicode="&#xcf;" horiz-adv-x="593" d="M-166 1860q0 39 15.5 75.5t43 63t63.5 43t79 16.5q41 0 76.5 -15t63.5 -43t43 -63.5t15 -76.5q0 -43 -16 -79t-43 -62.5t-63.5 -42t-75.5 -15.5q-84 0 -142.5 57.5t-58.5 141.5zM143 0v1536h308v-1536h-308zM362 1860q0 39 15.5 75.5t42 63t62.5 43t79 16.5q41 0 77 -15 t63.5 -43t43 -63.5t15.5 -76.5q0 -43 -16.5 -79t-43 -62.5t-63.5 -42t-76 -15.5q-84 0 -141.5 57.5t-57.5 141.5z" />
<glyph unicode="&#xd0;" horiz-adv-x="1361" d="M0 657v195h625v-195h-625zM143 0v1536h367q176 0 318.5 -53t242.5 -153.5t154.5 -242t54.5 -315.5t-54.5 -316.5t-154.5 -243.5t-242.5 -156.5t-318.5 -55.5h-367zM449 266h55q223 0 346 132t123 374t-123 370t-346 128h-55v-1004z" />
<glyph unicode="&#xd1;" horiz-adv-x="1433" d="M143 0v1536h213l605 -881v881h329v-1536h-219l-598 862v-862h-330zM256 1794q51 84 100.5 146.5t106.5 92t128 17.5t167 -78q10 -6 26.5 -18t34 -24.5t33.5 -22t29 -9.5q10 0 25.5 18.5t29.5 43.5t26.5 48.5t16.5 33.5l201 -98q-49 -86 -97.5 -150.5t-106.5 -93.5 t-131 -16.5t-167 77.5q-10 8 -26.5 20.5l-33 25t-33 20.5t-28.5 8t-27.5 -18.5t-30 -43t-25.5 -48t-17 -33.5z" />
<glyph unicode="&#xd2;" horiz-adv-x="1748" d="M82 768q0 162 62.5 306.5t171 251t252 168.5t306.5 62q162 0 306.5 -62t253 -168.5t171 -251t62.5 -306.5q0 -164 -62.5 -307.5t-171 -251t-253 -168.5t-306.5 -61q-164 0 -307 61t-251.5 168.5t-171 251t-62.5 307.5zM389 768q0 -98 39 -186t104.5 -154t154.5 -103.5 t187 -37.5t187.5 37.5t155 103.5t104.5 154t39 186t-39 186t-104.5 154t-154.5 103.5t-188 37.5q-100 0 -188 -37.5t-154.5 -103.5t-104.5 -154t-38 -186zM506 2025h305l164 -362h-217z" />
<glyph unicode="&#xd3;" horiz-adv-x="1748" d="M82 768q0 162 62.5 306.5t171 251t252 168.5t306.5 62q162 0 306.5 -62t253 -168.5t171 -251t62.5 -306.5q0 -164 -62.5 -307.5t-171 -251t-253 -168.5t-306.5 -61q-164 0 -307 61t-251.5 168.5t-171 251t-62.5 307.5zM389 768q0 -98 39 -186t104.5 -154t154.5 -103.5 t187 -37.5t187.5 37.5t155 103.5t104.5 154t39 186t-39 186t-104.5 154t-154.5 103.5t-188 37.5q-100 0 -188 -37.5t-154.5 -103.5t-104.5 -154t-38 -186zM780 1667l162 363h307l-252 -363h-217z" />
<glyph unicode="&#xd4;" horiz-adv-x="1748" d="M82 768q0 162 62.5 306.5t171 251t252 168.5t306.5 62q162 0 306.5 -62t253 -168.5t171 -251t62.5 -306.5q0 -164 -62.5 -307.5t-171 -251t-253 -168.5t-306.5 -61q-164 0 -307 61t-251.5 168.5t-171 251t-62.5 307.5zM389 768q0 -98 39 -186t104.5 -154t154.5 -103.5 t187 -37.5t187.5 37.5t155 103.5t104.5 154t39 186t-39 186t-104.5 154t-154.5 103.5t-188 37.5q-100 0 -188 -37.5t-154.5 -103.5t-104.5 -154t-38 -186zM487 1663l285 334h205l285 -334h-265l-123 119l-124 -119h-263z" />
<glyph unicode="&#xd5;" horiz-adv-x="1748" d="M82 768q0 162 62.5 306.5t171 251t252 168.5t306.5 62q162 0 306.5 -62t253 -168.5t171 -251t62.5 -306.5q0 -164 -62.5 -307.5t-171 -251t-253 -168.5t-306.5 -61q-164 0 -307 61t-251.5 168.5t-171 251t-62.5 307.5zM389 768q0 -98 39 -186t104.5 -154t154.5 -103.5 t187 -37.5t187.5 37.5t155 103.5t104.5 154t39 186t-39 186t-104.5 154t-154.5 103.5t-188 37.5q-100 0 -188 -37.5t-154.5 -103.5t-104.5 -154t-38 -186zM414 1794q51 84 100 146.5t106.5 92t128 17.5t166.5 -78q10 -6 26.5 -18t34 -24.5t34 -22t28.5 -9.5q10 0 25.5 18.5 t30 43.5t27 48.5t16.5 33.5l200 -98q-49 -86 -97 -150.5t-106.5 -93.5t-131 -16.5t-166.5 77.5q-10 8 -26.5 20.5l-33 25t-33 20.5t-28.5 8t-27.5 -18.5t-30 -43t-26 -48t-17.5 -33.5z" />
<glyph unicode="&#xd6;" horiz-adv-x="1748" d="M82 768q0 162 62.5 306.5t171 251t252 168.5t306.5 62q162 0 306.5 -62t253 -168.5t171 -251t62.5 -306.5q0 -164 -62.5 -307.5t-171 -251t-253 -168.5t-306.5 -61q-164 0 -307 61t-251.5 168.5t-171 251t-62.5 307.5zM389 768q0 -98 39 -186t104.5 -154t154.5 -103.5 t187 -37.5t187.5 37.5t155 103.5t104.5 154t39 186t-39 186t-104.5 154t-154.5 103.5t-188 37.5q-100 0 -188 -37.5t-154.5 -103.5t-104.5 -154t-38 -186zM414 1860q0 39 15 75.5t42 63t62.5 43t78.5 16.5q41 0 77 -15t63.5 -43t43 -63.5t15.5 -76.5q0 -43 -16.5 -79 t-43 -62.5t-63.5 -42t-76 -15.5q-84 0 -141 57.5t-57 141.5zM940 1860q0 39 15.5 75.5t42 63t62.5 43t79 16.5q41 0 76.5 -15t63.5 -43t43 -63.5t15 -76.5q0 -43 -16 -79t-43 -62.5t-63.5 -42t-75.5 -15.5q-84 0 -141.5 57.5t-57.5 141.5z" />
<glyph unicode="&#xd7;" horiz-adv-x="1130" d="M92 180l301 301l-301 301l170 174l303 -303l303 303l170 -174l-301 -301l301 -301l-170 -174l-303 303l-303 -303z" />
<glyph unicode="&#xd8;" horiz-adv-x="1748" d="M82 768q0 162 62.5 306.5t171 251t252 168.5t306.5 62q162 0 306.5 -62t253 -168.5t171 -251t62.5 -306.5q0 -164 -62.5 -307.5t-171 -251t-253 -168.5t-306.5 -61q-164 0 -307 61t-251.5 168.5t-171 251t-62.5 307.5zM389 768q0 -98 39 -186t104.5 -154t154.5 -103.5 t187 -37.5t187.5 37.5t155 103.5t104.5 154t39 186t-39 186t-104.5 154t-154.5 103.5t-188 37.5q-100 0 -188 -37.5t-154.5 -103.5t-104.5 -154t-38 -186zM440 -20l699 1576h170l-699 -1576h-170z" />
<glyph unicode="&#xd9;" horiz-adv-x="1474" d="M123 500v1036h313v-1036q0 -37 20.5 -76t59.5 -70.5t94.5 -52t126.5 -20.5q72 0 128.5 20.5t94 52t58 70.5t20.5 76v1036h314v-1036q0 -98 -49.5 -191.5t-132.5 -166t-195.5 -117.5t-237.5 -45q-123 0 -234.5 45t-196.5 117.5t-134 165.5t-49 192zM403 2025h306l163 -362 h-217z" />
<glyph unicode="&#xda;" horiz-adv-x="1474" d="M123 500v1036h313v-1036q0 -37 20.5 -76t59.5 -70.5t94.5 -52t126.5 -20.5q72 0 128.5 20.5t94 52t58 70.5t20.5 76v1036h314v-1036q0 -98 -49.5 -191.5t-132.5 -166t-195.5 -117.5t-237.5 -45q-123 0 -234.5 45t-196.5 117.5t-134 165.5t-49 192zM578 1667l161 363h308 l-252 -363h-217z" />
<glyph unicode="&#xdb;" horiz-adv-x="1474" d="M123 500v1036h313v-1036q0 -37 20.5 -76t59.5 -70.5t94.5 -52t126.5 -20.5q72 0 128.5 20.5t94 52t58 70.5t20.5 76v1036h314v-1036q0 -98 -49.5 -191.5t-132.5 -166t-195.5 -117.5t-237.5 -45q-123 0 -234.5 45t-196.5 117.5t-134 165.5t-49 192zM350 1663l285 334h205 l284 -334h-264l-123 119l-125 -119h-262z" />
<glyph unicode="&#xdc;" horiz-adv-x="1474" d="M123 500v1036h313v-1036q0 -37 20.5 -76t59.5 -70.5t94.5 -52t126.5 -20.5q72 0 128.5 20.5t94 52t58 70.5t20.5 76v1036h314v-1036q0 -98 -49.5 -191.5t-132.5 -166t-195.5 -117.5t-237.5 -45q-123 0 -234.5 45t-196.5 117.5t-134 165.5t-49 192zM276 1860 q0 39 15.5 75.5t42 63t62.5 43t79 16.5q41 0 77 -15t63.5 -43t43 -63.5t15.5 -76.5q0 -43 -16.5 -79t-43 -62.5t-63.5 -42t-76 -15.5q-84 0 -141.5 57.5t-57.5 141.5zM803 1860q0 39 15.5 75.5t42 63t62 43t78.5 16.5q41 0 77 -15t63.5 -43t43 -63.5t15.5 -76.5 q0 -43 -16.5 -79t-43 -62.5t-63.5 -42t-76 -15.5q-84 0 -141 57.5t-57 141.5z" />
<glyph unicode="&#xdd;" horiz-adv-x="1255" d="M-41 1536h369l299 -475l301 475h368l-516 -813v-723h-307v723zM516 1667l162 363h307l-252 -363h-217z" />
<glyph unicode="&#xdf;" horiz-adv-x="1062" d="M61 -2v1143q0 94 32 167.5t87.5 125t132 77t168.5 25.5q82 0 155 -30.5t128 -85t87 -126t32 -153.5q0 -57 -23.5 -121t-66.5 -105q109 -66 158.5 -177t49.5 -234q0 -129 -36.5 -225.5t-104 -161t-163 -99t-212.5 -43.5v287q92 14 147.5 66.5t55.5 175.5q0 63 -14.5 106 t-41 71t-64.5 43t-83 24v278q41 4 72 26.5t31 88.5q0 45 -30 79.5t-77 34.5q-45 0 -75.5 -34.5t-30.5 -79.5v-1143h-314z" />
<glyph unicode="&#xe0;" d="M82 481q0 104 35 195.5t95 159t140 107.5t172 40q168 0 291 -123v103h307v-963h-307v102q-123 -123 -291 -122q-92 0 -172 39.5t-140 107.5t-95 159t-35 195zM221 1536h307l162 -362h-217zM389 481q0 -51 16.5 -95t45 -77t67.5 -52t84 -19q43 0 82 19t68.5 52t46 77 t16.5 95t-16.5 95.5t-46 77t-68.5 52t-82 19.5q-45 0 -84 -19.5t-67.5 -52t-45 -77t-16.5 -95.5z" />
<glyph unicode="&#xe1;" d="M82 481q0 104 35 195.5t95 159t140 107.5t172 40q168 0 291 -123v103h307v-963h-307v102q-123 -123 -291 -122q-92 0 -172 39.5t-140 107.5t-95 159t-35 195zM389 481q0 -51 16.5 -95t45 -77t67.5 -52t84 -19q43 0 82 19t68.5 52t46 77t16.5 95t-16.5 95.5t-46 77 t-68.5 52t-82 19.5q-45 0 -84 -19.5t-67.5 -52t-45 -77t-16.5 -95.5zM418 1174l164 362h307l-252 -362h-219z" />
<glyph unicode="&#xe2;" d="M82 481q0 104 35 195.5t95 159t140 107.5t172 40q168 0 291 -123v103h307v-963h-307v102q-123 -123 -291 -122q-92 0 -172 39.5t-140 107.5t-95 159t-35 195zM205 1155l284 334h205l285 -334h-264l-123 121l-125 -121h-262zM389 481q0 -51 16.5 -95t45 -77t67.5 -52 t84 -19q43 0 82 19t68.5 52t46 77t16.5 95t-16.5 95.5t-46 77t-68.5 52t-82 19.5q-45 0 -84 -19.5t-67.5 -52t-45 -77t-16.5 -95.5z" />
<glyph unicode="&#xe3;" d="M82 481q0 104 35 195.5t95 159t140 107.5t172 40q168 0 291 -123v103h307v-963h-307v102q-123 -123 -291 -122q-92 0 -172 39.5t-140 107.5t-95 159t-35 195zM131 1237q51 84 100.5 146.5t106.5 92t128 17.5t167 -78q10 -6 26.5 -18.5t34 -24.5t33.5 -21.5t29 -9.5 q10 0 25.5 18.5t29.5 43t26.5 48.5t16.5 34l201 -99q-49 -86 -97.5 -150.5t-106.5 -93t-131 -16t-167 77.5q-10 8 -26.5 20.5l-33 25t-33 20.5t-28.5 8t-27.5 -18.5t-30 -43t-25.5 -48t-17 -33.5zM389 481q0 -51 16.5 -95t45 -77t67.5 -52t84 -19q43 0 82 19t68.5 52t46 77 t16.5 95t-16.5 95.5t-46 77t-68.5 52t-82 19.5q-45 0 -84 -19.5t-67.5 -52t-45 -77t-16.5 -95.5z" />
<glyph unicode="&#xe4;" d="M82 481q0 104 35 195.5t95 159t140 107.5t172 40q168 0 291 -123v103h307v-963h-307v102q-123 -123 -291 -122q-92 0 -172 39.5t-140 107.5t-95 159t-35 195zM131 1323q0 41 15.5 77t42 63.5t62.5 43t79 15.5q41 0 76.5 -15.5t63.5 -42t43 -63.5t15 -78t-16 -78 t-43 -63.5t-63.5 -42t-75.5 -15.5q-41 0 -78 15.5t-63.5 43t-42 63.5t-15.5 77zM389 481q0 -51 16.5 -95t45 -77t67.5 -52t84 -19q43 0 82 19t68.5 52t46 77t16.5 95t-16.5 95.5t-46 77t-68.5 52t-82 19.5q-45 0 -84 -19.5t-67.5 -52t-45 -77t-16.5 -95.5zM657 1323 q0 41 15.5 77t42 63.5t62.5 43t79 15.5q41 0 77 -15.5t63.5 -42t43 -63.5t15.5 -78t-16.5 -78t-43 -63.5t-63.5 -42t-76 -15.5q-41 0 -78 15.5t-63.5 43t-42 63.5t-15.5 77z" />
<glyph unicode="&#xe5;" d="M82 481q0 104 35 195.5t95 159t140 107.5t172 40q168 0 291 -123v103h307v-963h-307v102q-123 -123 -291 -122q-92 0 -172 39.5t-140 107.5t-95 159t-35 195zM346 1321q0 92 62.5 154.5t154.5 62.5q45 0 84 -17.5t68.5 -46t47 -68.5t17.5 -85t-17.5 -84t-47 -68.5 t-68.5 -46t-84 -16.5t-85 16.5t-68.5 46t-46 68.5t-17.5 84zM389 481q0 -51 16.5 -95t45 -77t67.5 -52t84 -19q43 0 82 19t68.5 52t46 77t16.5 95t-16.5 95.5t-46 77t-68.5 52t-82 19.5q-45 0 -84 -19.5t-67.5 -52t-45 -77t-16.5 -95.5zM502 1321q0 -27 17.5 -45.5 t43.5 -18.5q25 0 43.5 19.5t18.5 44.5q0 29 -18.5 47t-43.5 18q-27 0 -44 -18t-17 -47z" />
<glyph unicode="&#xe6;" horiz-adv-x="1798" d="M61 330q0 102 52.5 161.5t136.5 98.5q63 27 125 26h243q-6 31 -21 57.5t-36.5 46t-45 31t-44.5 11.5q-61 0 -115.5 -28.5t-101.5 -94.5l-172 147q61 57 113.5 95.5t98.5 61t90 31.5t87 9q215 0 369 -195q68 90 170 142.5t225 52.5q104 0 195.5 -39t160 -107.5 t107.5 -159.5t39 -196v-61h-695q10 -82 62.5 -128t130.5 -46q59 0 115.5 32.5t87.5 88.5l215 -164q-70 -104 -180.5 -163.5t-237.5 -59.5q-41 0 -88 8t-95 27.5t-92.5 53t-80.5 85.5v-152h-504q-66 0 -123 26.5t-99 70.5t-67 103.5t-25 127.5zM313 317q0 -29 18.5 -48 t43.5 -19h313v133h-313q-25 0 -43.5 -18.5t-18.5 -47.5zM1067 600h371q-23 57 -75 91t-112 34q-47 0 -98 -29.5t-86 -95.5z" />
<glyph unicode="&#xe7;" horiz-adv-x="1052" d="M82 481q0 104 40 195.5t107.5 159t159.5 107.5t197 40q135 0 247.5 -63.5t178.5 -174.5l-230 -157q-29 53 -80 85t-116 32q-47 0 -88 -17.5t-72 -48.5t-48.5 -72t-17.5 -86q0 -47 17.5 -88t48.5 -71.5t72 -48t88 -17.5q66 0 117 33t79 86l230 -160 q-66 -106 -178.5 -170.5t-247.5 -64.5q-104 0 -196.5 38.5t-160 107.5t-107.5 160t-40 195zM473 -299q53 0 93 18.5t40 71.5q0 41 -37 58.5t-90 13.5q4 12 11.5 35.5t13.5 48.5q8 29 16 61l123 -8q-20 0 -31.5 -26.5t-15.5 -49.5q37 0 69.5 -8t58.5 -24.5t41 -45t15 -67.5 q0 -61 -28.5 -97t-73.5 -54.5t-99.5 -22.5t-105.5 -4v100z" />
<glyph unicode="&#xe8;" horiz-adv-x="1157" d="M82 481q0 104 40 195.5t107.5 159t158.5 107.5t196 40q104 0 195 -40t159 -107.5t107.5 -158.5t39.5 -196v-61h-694q10 -82 62.5 -128t130.5 -46q59 0 114.5 32.5t85.5 88.5l217 -164q-72 -104 -180 -163.5t-237 -59.5q-104 0 -195.5 39.5t-159 107.5t-107.5 159t-40 195 zM242 1536h307l162 -362h-217zM414 600h372q-25 57 -76 91t-110 34q-47 0 -99 -29.5t-87 -95.5z" />
<glyph unicode="&#xe9;" horiz-adv-x="1157" d="M82 481q0 104 40 195.5t107.5 159t158.5 107.5t196 40q104 0 195 -40t159 -107.5t107.5 -158.5t39.5 -196v-61h-694q10 -82 62.5 -128t130.5 -46q59 0 114.5 32.5t85.5 88.5l217 -164q-72 -104 -180 -163.5t-237 -59.5q-104 0 -195.5 39.5t-159 107.5t-107.5 159t-40 195 zM414 600h372q-25 57 -76 91t-110 34q-47 0 -99 -29.5t-87 -95.5zM508 1174l162 362h307l-252 -362h-217z" />
<glyph unicode="&#xea;" horiz-adv-x="1157" d="M82 481q0 104 40 195.5t107.5 159t158.5 107.5t196 40q104 0 195 -40t159 -107.5t107.5 -158.5t39.5 -196v-61h-694q10 -82 62.5 -128t130.5 -46q59 0 114.5 32.5t85.5 88.5l217 -164q-72 -104 -180 -163.5t-237 -59.5q-104 0 -195.5 39.5t-159 107.5t-107.5 159t-40 195 zM211 1155l285 334h206l285 -334h-264l-125 121l-123 -121h-264zM414 600h372q-25 57 -76 91t-110 34q-47 0 -99 -29.5t-87 -95.5z" />
<glyph unicode="&#xeb;" horiz-adv-x="1157" d="M82 481q0 104 40 195.5t107.5 159t158.5 107.5t196 40q104 0 195 -40t159 -107.5t107.5 -158.5t39.5 -196v-61h-694q10 -82 62.5 -128t130.5 -46q59 0 114.5 32.5t85.5 88.5l217 -164q-72 -104 -180 -163.5t-237 -59.5q-104 0 -195.5 39.5t-159 107.5t-107.5 159t-40 195 zM137 1323q0 41 15.5 77t42 63.5t62.5 43t79 15.5q41 0 77 -15.5t63.5 -42t43 -63.5t15.5 -78t-15.5 -78t-43 -63.5t-63.5 -42t-77 -15.5t-78 15.5t-63.5 43t-42 63.5t-15.5 77zM414 600h372q-25 57 -76 91t-110 34q-47 0 -99 -29.5t-87 -95.5zM664 1323q0 41 15 77t42 63.5 t62.5 43t78.5 15.5q41 0 77 -15.5t63.5 -42t43 -63.5t15.5 -78t-15.5 -78t-43 -63.5t-63.5 -42t-77 -15.5t-77.5 15.5t-63.5 43t-42 63.5t-15 77z" />
<glyph unicode="&#xec;" horiz-adv-x="620" d="M-47 1536h307l162 -362h-217zM156 0v963h307v-963h-307z" />
<glyph unicode="&#xed;" horiz-adv-x="620" d="M156 0v963h307v-963h-307zM219 1174l164 362h307l-252 -362h-219z" />
<glyph unicode="&#xee;" horiz-adv-x="620" d="M-78 1155l285 334h207l284 -334h-266l-123 121l-123 -121h-264zM156 0v963h307v-963h-307z" />
<glyph unicode="&#xef;" horiz-adv-x="620" d="M-152 1323q0 41 15.5 77t42 63.5t62.5 43t79 15.5q41 0 77 -15.5t63.5 -42t43 -63.5t15.5 -78t-16.5 -78t-43 -63.5t-63.5 -42t-76 -15.5q-41 0 -78 15.5t-63.5 43t-42 63.5t-15.5 77zM156 0v963h307v-963h-307zM375 1323q0 41 15.5 77t42 63.5t62 43t78.5 15.5 q41 0 77 -15.5t63.5 -42t43 -63.5t15.5 -78t-16.5 -78t-43 -63.5t-63.5 -42t-76 -15.5q-41 0 -77.5 15.5t-63 43t-42 63.5t-15.5 77z" />
<glyph unicode="&#xf1;" horiz-adv-x="1245" d="M143 0v963h308v-103q59 57 130.5 90t157.5 33q403 0 404 -461v-522h-307v522q0 98 -43 150.5t-129 52.5q-45 0 -84 -19.5t-68 -52t-45 -78t-16 -94.5v-481h-308zM203 1237q51 84 100 146.5t106.5 92t128 17.5t167.5 -78q10 -6 26.5 -18.5t33.5 -24.5t33.5 -21.5 t28.5 -9.5q10 0 25.5 18.5t30 43t27 48.5t16.5 34l200 -99q-49 -86 -97 -150.5t-106.5 -93t-131 -16t-166.5 77.5q-10 8 -26.5 20.5l-33 25t-33 20.5t-28.5 8t-27.5 -18.5t-30 -43t-26 -48t-17.5 -33.5z" />
<glyph unicode="&#xf2;" horiz-adv-x="1167" d="M82 481q0 104 40 195.5t107.5 159t158.5 107.5t196 40q104 0 195 -40t159 -107.5t107.5 -159t39.5 -195.5t-39.5 -195t-107.5 -159t-159 -107.5t-195 -39.5t-195.5 39.5t-159 107.5t-107.5 159t-40 195zM246 1536h307l164 -362h-219zM344 481q0 -49 18.5 -93t51 -76.5 t77 -51t93.5 -18.5t93 18.5t76.5 51t51 76.5t18.5 93t-18.5 93t-51 77t-76.5 51.5t-93 18.5t-93.5 -18.5t-77 -51.5t-51 -77t-18.5 -93z" />
<glyph unicode="&#xf3;" horiz-adv-x="1167" d="M82 481q0 104 40 195.5t107.5 159t158.5 107.5t196 40q104 0 195 -40t159 -107.5t107.5 -159t39.5 -195.5t-39.5 -195t-107.5 -159t-159 -107.5t-195 -39.5t-195.5 39.5t-159 107.5t-107.5 159t-40 195zM344 481q0 -49 18.5 -93t51 -76.5t77 -51t93.5 -18.5t93 18.5 t76.5 51t51 76.5t18.5 93t-18.5 93t-51 77t-76.5 51.5t-93 18.5t-93.5 -18.5t-77 -51.5t-51 -77t-18.5 -93zM479 1174l164 362h307l-252 -362h-219z" />
<glyph unicode="&#xf4;" horiz-adv-x="1167" d="M82 481q0 104 40 195.5t107.5 159t158.5 107.5t196 40q104 0 195 -40t159 -107.5t107.5 -159t39.5 -195.5t-39.5 -195t-107.5 -159t-159 -107.5t-195 -39.5t-195.5 39.5t-159 107.5t-107.5 159t-40 195zM197 1155l284 334h205l285 -334h-264l-123 121l-125 -121h-262z M344 481q0 -49 18.5 -93t51 -76.5t77 -51t93.5 -18.5t93 18.5t76.5 51t51 76.5t18.5 93t-18.5 93t-51 77t-76.5 51.5t-93 18.5t-93.5 -18.5t-77 -51.5t-51 -77t-18.5 -93z" />
<glyph unicode="&#xf5;" horiz-adv-x="1167" d="M82 481q0 104 40 195.5t107.5 159t158.5 107.5t196 40q104 0 195 -40t159 -107.5t107.5 -159t39.5 -195.5t-39.5 -195t-107.5 -159t-159 -107.5t-195 -39.5t-195.5 39.5t-159 107.5t-107.5 159t-40 195zM123 1237q51 84 100 146.5t106.5 92t128 17.5t167.5 -78 q10 -6 26.5 -18.5t33.5 -24.5t33.5 -21.5t29.5 -9.5q10 0 25 18.5t29.5 43t27 48.5t16.5 34l201 -99q-49 -86 -97.5 -150.5t-107 -93t-131 -16t-166.5 77.5q-10 8 -26.5 20.5l-33 25t-33 20.5t-28.5 8t-27.5 -18.5t-30 -43t-25.5 -48t-17 -33.5zM344 481q0 -49 18.5 -93 t51 -76.5t77 -51t93.5 -18.5t93 18.5t76.5 51t51 76.5t18.5 93t-18.5 93t-51 77t-76.5 51.5t-93 18.5t-93.5 -18.5t-77 -51.5t-51 -77t-18.5 -93z" />
<glyph unicode="&#xf6;" horiz-adv-x="1167" d="M82 481q0 104 40 195.5t107.5 159t158.5 107.5t196 40q104 0 195 -40t159 -107.5t107.5 -159t39.5 -195.5t-39.5 -195t-107.5 -159t-159 -107.5t-195 -39.5t-195.5 39.5t-159 107.5t-107.5 159t-40 195zM123 1323q0 41 15.5 77t42 63.5t62.5 43t79 15.5q41 0 76.5 -15.5 t63 -42t43 -63.5t15.5 -78t-16.5 -78t-43 -63.5t-63.5 -42t-75 -15.5q-41 0 -78 15.5t-63.5 43t-42 63.5t-15.5 77zM344 481q0 -49 18.5 -93t51 -76.5t77 -51t93.5 -18.5t93 18.5t76.5 51t51 76.5t18.5 93t-18.5 93t-51 77t-76.5 51.5t-93 18.5t-93.5 -18.5t-77 -51.5 t-51 -77t-18.5 -93zM649 1323q0 41 15.5 77t42 63.5t62.5 43t79 15.5q41 0 77 -15.5t63.5 -42t43 -63.5t15.5 -78t-16.5 -78t-43 -63.5t-63.5 -42t-76 -15.5q-41 0 -78 15.5t-63.5 43t-42 63.5t-15.5 77z" />
<glyph unicode="&#xf7;" horiz-adv-x="1122" d="M92 336v307h938v-307h-938zM373 35q0 41 15 76.5t42 63.5t62.5 43t78.5 15q41 0 77 -15t63.5 -43t43 -63.5t15.5 -76.5q0 -43 -15.5 -79t-43 -62.5t-63.5 -42t-77 -15.5q-84 0 -141 57.5t-57 141.5zM373 946q0 41 15 77t42 63.5t62.5 43t78.5 15.5q41 0 77 -15.5 t63.5 -42t43 -63.5t15.5 -78t-15.5 -78t-43 -63.5t-63.5 -41.5t-77 -15q-84 0 -141 57t-57 141z" />
<glyph unicode="&#xf8;" horiz-adv-x="1167" d="M82 481q0 104 40 195.5t107.5 159t158.5 107.5t196 40q104 0 195 -40t159 -107.5t107.5 -159t39.5 -195.5t-39.5 -195t-107.5 -159t-159 -107.5t-195 -39.5t-195.5 39.5t-159 107.5t-107.5 159t-40 195zM248 -98l510 1151h170l-510 -1151h-170zM344 481q0 -49 18.5 -93 t51 -76.5t77 -51t93.5 -18.5t93 18.5t76.5 51t51 76.5t18.5 93t-18.5 93t-51 77t-76.5 51.5t-93 18.5t-93.5 -18.5t-77 -51.5t-51 -77t-18.5 -93z" />
<glyph unicode="&#xf9;" horiz-adv-x="1126" d="M102 420v543h308v-531q0 -80 36.5 -137t116.5 -57t117 57t37 137v531h307v-543q0 -104 -33 -185t-93 -138.5t-145 -87t-190 -29.5q-104 0 -189 29.5t-145.5 87t-93.5 138t-33 185.5zM205 1536h307l164 -362h-219z" />
<glyph unicode="&#xfa;" horiz-adv-x="1126" d="M102 420v543h308v-531q0 -80 36.5 -137t116.5 -57t117 57t37 137v531h307v-543q0 -104 -33 -185t-93 -138.5t-145 -87t-190 -29.5q-104 0 -189 29.5t-145.5 87t-93.5 138t-33 185.5zM446 1174l162 362h307l-251 -362h-218z" />
<glyph unicode="&#xfb;" horiz-adv-x="1126" d="M102 420v543h308v-531q0 -80 36.5 -137t116.5 -57t117 57t37 137v531h307v-543q0 -104 -33 -185t-93 -138.5t-145 -87t-190 -29.5q-104 0 -189 29.5t-145.5 87t-93.5 138t-33 185.5zM176 1155l285 334h205l284 -334h-264l-123 121l-125 -121h-262z" />
<glyph unicode="&#xfc;" horiz-adv-x="1126" d="M102 420v543h308v-531q0 -80 36.5 -137t116.5 -57t117 57t37 137v531h307v-543q0 -104 -33 -185t-93 -138.5t-145 -87t-190 -29.5q-104 0 -189 29.5t-145.5 87t-93.5 138t-33 185.5zM102 1323q0 41 15.5 77t42 63.5t62.5 43t79 15.5q41 0 77 -15.5t63.5 -42t43 -63.5 t15.5 -78t-16.5 -78t-43 -63.5t-63.5 -42t-76 -15.5q-41 0 -78 15.5t-63.5 43t-42 63.5t-15.5 77zM629 1323q0 41 15 77t42 63.5t62.5 43t78.5 15.5q41 0 77 -15.5t63.5 -42t43 -63.5t15.5 -78t-16.5 -78t-43 -63.5t-63.5 -42t-76 -15.5q-41 0 -77.5 15.5t-63.5 43t-42 63.5 t-15 77z" />
<glyph unicode="&#xfd;" horiz-adv-x="1040" d="M20 963h310l190 -529l189 529h311l-524 -1461h-310l179 498zM406 1174l161 362h307l-251 -362h-217z" />
<glyph unicode="&#xff;" horiz-adv-x="1040" d="M20 963h310l190 -529l189 529h311l-524 -1461h-310l179 498zM59 1323q0 41 15.5 77t42 63.5t62.5 43t79 15.5q41 0 77 -15.5t63.5 -42t43 -63.5t15.5 -78t-16.5 -78t-43 -63.5t-63.5 -42t-76 -15.5q-41 0 -78 15.5t-63.5 43t-42 63.5t-15.5 77zM586 1323q0 41 15 77 t42 63.5t62.5 43t78.5 15.5q41 0 77 -15.5t63.5 -42t43 -63.5t15.5 -78t-16.5 -78t-43 -63.5t-63.5 -42t-76 -15.5q-41 0 -77.5 15.5t-63.5 43t-42 63.5t-15 77z" />
<glyph unicode="&#x102;" horiz-adv-x="1472" d="M20 0l644 1536h147l641 -1536h-319l-123 295h-545l-121 -295h-324zM397 1976h250q0 -43 1 -67.5t10.5 -37.5t26.5 -17.5t52 -4.5q33 0 51.5 4.5t26.5 17.5t9 37.5t1 67.5h250q0 -113 -31.5 -176t-81 -95t-108.5 -40t-117 -8q-57 0 -117.5 8t-109.5 40t-81 95.5t-32 175.5 zM561 545h346l-170 409z" />
<glyph unicode="&#x103;" d="M82 481q0 -104 35 -195t95 -159t140 -107.5t172 -39.5q168 0 291 122v-102h307v963h-307v-103q-123 123 -291 123q-92 0 -172 -40t-140 -107.5t-95 -158.5t-35 -196zM205 1485h262l125 -121l123 121h264l-285 -334h-205zM389 481q0 51 16.5 95.5t45 77t67.5 52t84 19.5 q43 0 82 -19.5t68.5 -52t46 -77t16.5 -95.5t-16.5 -95t-46 -77t-68.5 -52t-82 -19q-45 0 -84 19t-67.5 52t-45 77t-16.5 95z" />
<glyph unicode="&#x104;" horiz-adv-x="1472" d="M20 0l644 1536h147l641 -1536h-319l-123 295h-545l-121 -295h-324zM561 545h346l-170 409zM936 -242q0 41 20.5 79t51 71t67.5 58.5t70 43.5l164 -10q-25 0 -55.5 -21.5t-56.5 -53t-44 -70.5t-18 -72q0 -31 12 -47.5t30.5 -25.5t43 -11t49.5 -2v-98q-39 0 -96.5 6 t-109.5 23.5t-90 49t-38 80.5z" />
<glyph unicode="&#x105;" d="M82 481q0 104 35 195.5t95 159t140 107.5t172 40q168 0 291 -123v103h307v-963h-307v102q-123 -123 -291 -122q-92 0 -172 39.5t-140 107.5t-95 159t-35 195zM389 481q0 -51 16.5 -95t45 -77t67.5 -52t84 -19q43 0 82 19t68.5 52t46 77t16.5 95t-16.5 95.5t-46 77 t-68.5 52t-82 19.5q-45 0 -84 -19.5t-67.5 -52t-45 -77t-16.5 -95.5zM705 -242q0 41 20 79t51 71t68 58.5t69 43.5l164 -10q-25 0 -55.5 -21.5t-56 -53t-44 -70.5t-18.5 -72q0 -31 12.5 -47.5t31 -25.5t43 -11t48.5 -2v-98q-39 0 -96 6t-109.5 23.5t-90 49t-37.5 80.5z" />
<glyph unicode="&#x106;" horiz-adv-x="1519" d="M82 768q0 162 61.5 306.5t166 251t244.5 168.5t300 62q72 0 156 -12t167 -45t160.5 -92t137.5 -154l-220 -211q-39 63 -92 102.5t-108.5 61t-108.5 28.5t-92 7q-96 0 -180 -38t-146.5 -102.5t-99.5 -150.5t-37 -182t37 -182t99.5 -150.5t146.5 -102.5t180 -38q39 0 87 3 t100.5 21.5t106.5 58.5t105 114l226 -207q-82 -106 -162 -168t-158 -92.5t-154.5 -37.5t-150.5 -7q-160 0 -300 62t-244.5 168.5t-166 250t-61.5 307.5zM764 1667l162 363h307l-252 -363h-217z" />
<glyph unicode="&#x107;" horiz-adv-x="1052" d="M82 481q0 104 40 195.5t107.5 159t159.5 107.5t197 40q135 0 247.5 -63.5t178.5 -174.5l-230 -157q-29 53 -80 85t-116 32q-47 0 -88 -17.5t-72 -48.5t-48.5 -72t-17.5 -86q0 -47 17.5 -88t48.5 -71.5t72 -48t88 -17.5q66 0 117 33t79 86l230 -160 q-66 -106 -178.5 -170.5t-247.5 -64.5q-104 0 -196.5 38.5t-160 107.5t-107.5 160t-40 195zM446 1174l162 362h307l-251 -362h-218z" />
<glyph unicode="&#x10c;" horiz-adv-x="1519" d="M82 768q0 -164 61.5 -307.5t166 -250t244.5 -168.5t300 -62q74 0 150.5 7t154.5 37.5t158 92t162 168.5l-226 207q-51 -74 -105 -114t-106.5 -58.5t-100.5 -21.5t-87 -3q-96 0 -180 38t-146.5 102.5t-99.5 150.5t-37 182t37 182t99.5 150.5t146.5 102.5t180 38 q39 0 92 -7t108.5 -28.5t109 -60.5t91.5 -103l220 211q-59 94 -137 153.5t-161 92.5t-167 45t-156 12q-160 0 -300 -62t-244.5 -168.5t-166 -251t-61.5 -306.5zM496 1993h262l125 -121l123 121h264l-285 -334h-205z" />
<glyph unicode="&#x10d;" horiz-adv-x="1052" d="M82 481q0 -104 40 -195t107.5 -160t159.5 -107.5t197 -38.5q135 0 247.5 64.5t178.5 170.5l-230 160q-29 -53 -80 -86t-116 -33q-47 0 -88 17.5t-72 48t-48.5 71.5t-17.5 88q0 45 17.5 86t48.5 72t72 48.5t88 17.5q66 0 117 -32t79 -85l230 157q-66 111 -178.5 174.5 t-247.5 63.5q-104 0 -196.5 -40t-160 -107.5t-107.5 -158.5t-40 -196zM201 1485h262l125 -121l123 121h264l-285 -334h-205z" />
<glyph unicode="&#x10e;" horiz-adv-x="1361" d="M143 0h367q176 0 318.5 55.5t242.5 156.5t154.5 243.5t54.5 316.5t-54.5 315.5t-154.5 242t-242.5 153.5t-318.5 53h-367v-1536zM170 1993h264l123 -121l125 121h264l-284 -334h-207zM449 266v1004h55q223 0 346 -128t123 -370t-123 -374t-346 -132h-55z" />
<glyph unicode="&#x10f;" d="M82 481q0 104 35 195.5t95 159t140 107.5t172 40q86 0 159 -32.5t132 -90.5v676h307v-1536h-307v100q-59 -57 -132 -88.5t-159 -31.5q-92 0 -172 38.5t-140 107.5t-95 160t-35 195zM389 481q0 -51 16.5 -95t45 -77t67.5 -52t84 -19q43 0 82 19t68.5 52t46 77t16.5 95 q0 49 -16.5 94.5t-46 78t-68.5 52t-82 19.5q-45 0 -84 -19.5t-67.5 -52t-45 -78t-16.5 -94.5zM1257 1028l152 508h334l-285 -508h-201z" />
<glyph unicode="&#x110;" horiz-adv-x="1361" d="M0 657v195h625v-195h-625zM143 0v1536h367q176 0 318.5 -53t242.5 -153.5t154.5 -242t54.5 -315.5t-54.5 -316.5t-154.5 -243.5t-242.5 -156.5t-318.5 -55.5h-367zM449 266h55q223 0 346 132t123 374t-123 370t-346 128h-55v-1004z" />
<glyph unicode="&#x111;" d="M82 481q0 104 35 195.5t95 159t140 107.5t172 40q86 0 159 -32.5t132 -90.5v676h307v-1536h-307v100q-59 -57 -132 -88.5t-159 -31.5q-92 0 -172 38.5t-140 107.5t-95 160t-35 195zM389 481q0 -51 16.5 -95t45 -77t67.5 -52t84 -19q43 0 82 19t68.5 52t46 77t16.5 95 q0 49 -16.5 94.5t-46 78t-68.5 52t-82 19.5q-45 0 -84 -19.5t-67.5 -52t-45 -78t-16.5 -94.5zM618 1087v195h625v-195h-625z" />
<glyph unicode="&#x118;" horiz-adv-x="1091" d="M143 0v1536h867v-285h-559v-354h493v-258h-493v-354h559v-285h-867zM612 -242q0 41 20.5 79t52.5 71t69 58.5t67 43.5l164 -10q-25 0 -54.5 -21.5t-56 -53t-45 -70.5t-18.5 -72q0 -31 12.5 -47.5t30.5 -25.5t43 -11t49 -2v-98q-39 0 -96 6t-109.5 23.5t-90.5 49t-38 80.5 z" />
<glyph unicode="&#x119;" horiz-adv-x="1157" d="M82 481q0 104 40 195.5t107.5 159t158.5 107.5t196 40q104 0 195 -40t159 -107.5t107.5 -158.5t39.5 -196v-61h-694q10 -82 62.5 -128t130.5 -46q59 0 114.5 32.5t85.5 88.5l217 -164q-72 -104 -180 -163.5t-237 -59.5q-104 0 -195.5 39.5t-159 107.5t-107.5 159t-40 195 zM344 -242q0 41 20.5 79t52.5 71t68.5 58.5t69.5 43.5l162 -10q-25 0 -54.5 -21.5t-56 -53t-45 -70.5t-18.5 -72q0 -31 12 -47.5t30.5 -25.5t43 -11t49.5 -2v-98q-39 0 -95.5 6t-109.5 23.5t-91 49t-38 80.5zM414 600h372q-25 57 -76 91t-110 34q-47 0 -99 -29.5t-87 -95.5z " />
<glyph unicode="&#x11a;" horiz-adv-x="1091" d="M143 0h867v285h-559v354h493v258h-493v354h559v285h-867v-1536zM199 1993h264l123 -121l125 121h264l-285 -334h-207z" />
<glyph unicode="&#x11b;" horiz-adv-x="1157" d="M82 481q0 -104 40 -195t107.5 -159t158.5 -107.5t196 -39.5q129 0 237.5 59t179.5 164l-217 164q-31 -55 -86 -88t-114 -33q-78 0 -130.5 46t-62.5 128h694v61q0 104 -39.5 195.5t-107.5 159t-159 107.5t-195 40t-195.5 -40t-159 -107.5t-107.5 -158.5t-40 -196z M211 1485h264l123 -121l125 121h264l-285 -334h-206zM414 600q35 66 87 95.5t99 29.5q59 0 110.5 -34t75.5 -91h-372z" />
<glyph unicode="&#x131;" horiz-adv-x="620" d="M156 0v963h307v-963h-307z" />
<glyph unicode="&#x139;" horiz-adv-x="1015" d="M143 0v1536h308v-1251h524v-285h-832zM184 1667l162 363h307l-252 -363h-217z" />
<glyph unicode="&#x13a;" horiz-adv-x="593" d="M143 0v1536h308v-1536h-308zM184 1667l162 363h307l-252 -363h-217z" />
<glyph unicode="&#x13d;" horiz-adv-x="1015" d="M143 0v1536h308v-1251h524v-285h-832zM541 1028l151 508h334l-285 -508h-200z" />
<glyph unicode="&#x13e;" horiz-adv-x="593" d="M143 0v1536h308v-1536h-308zM541 1028l151 508h334l-285 -508h-200z" />
<glyph unicode="&#x141;" horiz-adv-x="1015" d="M-63 612l651 461l84 -110l-649 -461zM143 0v1536h308v-1251h524v-285h-832z" />
<glyph unicode="&#x142;" horiz-adv-x="593" d="M-63 612l651 461l84 -110l-649 -461zM143 0v1536h308v-1536h-308z" />
<glyph unicode="&#x143;" horiz-adv-x="1433" d="M143 0v1536h213l605 -881v881h329v-1536h-219l-598 862v-862h-330zM584 1667l164 363h307l-252 -363h-219z" />
<glyph unicode="&#x144;" horiz-adv-x="1245" d="M143 0v963h308v-103q59 57 130.5 90t157.5 33q403 0 404 -461v-522h-307v522q0 98 -43 150.5t-129 52.5q-45 0 -84 -19.5t-68 -52t-45 -78t-16 -94.5v-481h-308zM643 1174l164 362h307l-252 -362h-219z" />
<glyph unicode="&#x147;" horiz-adv-x="1433" d="M143 0h330v862l598 -862h219v1536h-329v-881l-605 881h-213v-1536zM330 1993h262l125 -121l123 121h264l-285 -334h-205z" />
<glyph unicode="&#x148;" horiz-adv-x="1245" d="M143 0h308v481q0 49 16 94.5t45 78t67.5 52t84.5 19.5q86 0 129 -52t43 -151v-522h307v522q0 461 -404 461q-86 0 -157.5 -32.5t-130.5 -90.5v103h-308v-963zM276 1485h263l125 -121l122 121h265l-285 -334h-205z" />
<glyph unicode="&#x150;" horiz-adv-x="1748" d="M82 768q0 162 62.5 306.5t171 251t252 168.5t306.5 62q162 0 306.5 -62t253 -168.5t171 -251t62.5 -306.5q0 -164 -62.5 -307.5t-171 -251t-253 -168.5t-306.5 -61q-164 0 -307 61t-251.5 168.5t-171 251t-62.5 307.5zM389 768q0 -98 39 -186t104.5 -154t154.5 -103.5 t187 -37.5t187.5 37.5t155 103.5t104.5 154t39 186t-39 186t-104.5 154t-154.5 103.5t-188 37.5q-100 0 -188 -37.5t-154.5 -103.5t-104.5 -154t-38 -186zM549 1663l151 508h336l-284 -508h-203zM999 1663l152 508h336l-285 -508h-203z" />
<glyph unicode="&#x151;" horiz-adv-x="1167" d="M82 481q0 104 40 195.5t107.5 159t158.5 107.5t196 40q104 0 195 -40t159 -107.5t107.5 -159t39.5 -195.5t-39.5 -195t-107.5 -159t-159 -107.5t-195 -39.5t-195.5 39.5t-159 107.5t-107.5 159t-40 195zM279 1151l151 508h336l-285 -508h-202zM344 481q0 -49 18.5 -93 t51 -76.5t77 -51t93.5 -18.5t93 18.5t76.5 51t51 76.5t18.5 93t-18.5 93t-51 77t-76.5 51.5t-93 18.5t-93.5 -18.5t-77 -51.5t-51 -77t-18.5 -93zM729 1151l152 508h336l-285 -508h-203z" />
<glyph unicode="&#x152;" horiz-adv-x="2322" d="M82 768q0 162 62.5 306.5t171 251t252 168.5t306.5 62q141 0 268.5 -47t231.5 -131v158h867v-285h-560v-354h494v-258h-494v-354h560v-285h-867v158q-104 -86 -231 -132t-269 -46q-164 0 -307 61t-251.5 168.5t-171 251t-62.5 307.5zM389 768q0 -98 39 -186t104.5 -154 t154.5 -103.5t187 -37.5t187.5 37.5t155 103.5t104.5 154t39 186t-39 186t-104.5 154t-154.5 103.5t-188 37.5q-100 0 -188 -37.5t-154.5 -103.5t-104.5 -154t-38 -186z" />
<glyph unicode="&#x153;" horiz-adv-x="1837" d="M61 481q0 104 40 195.5t107.5 159t159 107.5t195.5 40t195.5 -40t161.5 -107q68 68 158.5 107.5t195.5 39.5q104 0 195.5 -40t160 -107.5t107.5 -158.5t39 -196v-61h-695q10 -82 62.5 -128t130.5 -46q59 0 114.5 32.5t86.5 88.5l217 -164q-72 -104 -181.5 -163.5 t-236.5 -59.5q-104 0 -195.5 38.5t-160.5 108.5q-68 -68 -159 -107.5t-196 -39.5q-104 0 -195.5 39.5t-159 107.5t-107.5 159t-40 195zM354 481q0 -43 16.5 -81t45 -66.5t66.5 -45t81 -16.5t81 16.5t66.5 45t45 66.5t16.5 81t-16.5 81t-45 66.5t-66.5 45t-81 16.5t-81 -16.5 t-66.5 -45t-45 -66.5t-16.5 -81zM1104 600h373q-25 57 -76 91t-111 34q-47 0 -99 -29.5t-87 -95.5z" />
<glyph unicode="&#x154;" horiz-adv-x="1257" d="M143 0v1536h578q88 0 168 -37t138 -101.5t93 -150.5t35 -184q0 -123 -54 -226.5t-153 -168.5l309 -668h-333l-275 594h-205v-594h-301zM444 897h277q27 0 52.5 15.5t44 39t29.5 53t11 58.5q0 31 -11 61.5t-29.5 55t-44 40t-52.5 15.5h-277v-338zM475 1667l164 363h307 l-252 -363h-219z" />
<glyph unicode="&#x155;" horiz-adv-x="790" d="M143 0v963h308v-103q123 123 288 123v-315q-39 16 -75 16q-86 0 -149.5 -49t-63.5 -154v-481h-308zM283 1174l163 362h308l-252 -362h-219z" />
<glyph unicode="&#x158;" horiz-adv-x="1257" d="M143 0h301v594h205l275 -594h333l-309 668q98 66 152.5 169t54.5 226q0 98 -35 184t-93 150.5t-138 101.5t-168 37h-578v-1536zM262 1993h262l125 -121l123 121h264l-284 -334h-205zM444 897v338h277q27 0 52.5 -15.5t44 -40t29.5 -55t11 -61.5q0 -29 -11 -58.5 t-29.5 -53t-44 -39t-52.5 -15.5h-277z" />
<glyph unicode="&#x159;" horiz-adv-x="790" d="M8 1485h262l125 -121l123 121h264l-284 -334h-205zM143 0h308v481q0 104 63.5 153.5t149.5 49.5q37 0 75 -16v315q-166 0 -288 -123v103h-308v-963z" />
<glyph unicode="&#x15a;" horiz-adv-x="1124" d="M63 373l275 127q20 -80 71.5 -140.5t141.5 -60.5q31 0 65.5 11.5t62.5 30.5t46 48t18 64q0 49 -44 82.5t-109.5 64.5t-143 65.5t-143 88t-109.5 132.5t-44 197q0 92 33.5 178.5t93 152t141.5 104t178 38.5q160 0 274.5 -89t167.5 -236l-280 -131q-16 55 -56 96t-100 41 q-66 0 -109.5 -45t-43.5 -109q0 -49 44 -80.5t109.5 -61.5t143 -64.5t143 -89t109.5 -134t44 -200.5q0 -104 -39.5 -190.5t-108.5 -150t-159 -98t-190 -34.5q-92 0 -170 28.5t-139.5 80.5t-105.5 125t-67 159zM471 1667l162 363h307l-252 -363h-217z" />
<glyph unicode="&#x15b;" horiz-adv-x="843" d="M31 266l250 92q16 -53 50 -89t93 -36q14 0 31.5 4.5t33 11.5t25.5 20.5t10 31.5q0 31 -33.5 50.5t-84 34.5t-108.5 33.5t-108.5 49.5t-84 78t-33.5 123q0 70 30.5 128t82 99t114.5 63.5t131 22.5q127 0 214 -68.5t144 -177.5l-256 -94q-10 35 -37.5 63.5t-64.5 28.5 q-29 0 -50.5 -13t-21.5 -42q0 -27 34 -43t84 -32.5t108.5 -38t108.5 -55.5t84 -87t34 -131q0 -74 -36 -132.5t-91 -98t-123.5 -61t-136.5 -21.5q-141 0 -244.5 76.5t-148.5 209.5zM309 1174l164 362h307l-252 -362h-219z" />
<glyph unicode="&#x15e;" horiz-adv-x="1124" d="M63 373l275 127q20 -80 71.5 -140.5t141.5 -60.5q31 0 65.5 11.5t62.5 30.5t46 48t18 64q0 49 -44 82.5t-109.5 64.5t-143 65.5t-143 88t-109.5 132.5t-44 197q0 92 33.5 178.5t93 152t141.5 104t178 38.5q160 0 274.5 -89t167.5 -236l-280 -131q-16 55 -56 96t-100 41 q-66 0 -109.5 -45t-43.5 -109q0 -49 44 -80.5t109.5 -61.5t143 -64.5t143 -89t109.5 -134t44 -200.5q0 -104 -39.5 -190.5t-108.5 -150t-159 -98t-190 -34.5q-92 0 -170 28.5t-139.5 80.5t-105.5 125t-67 159zM489 -299q53 0 94.5 18.5t41.5 71.5q0 41 -38 58.5t-91 13.5 q4 12 11 35.5t13 48.5q8 29 17 61l125 -8q-23 0 -33.5 -26.5t-14.5 -49.5q37 0 70 -8t58.5 -24.5t41 -45t15.5 -67.5q0 -61 -29 -97t-74 -54.5t-100 -22.5t-107 -4v100z" />
<glyph unicode="&#x15f;" horiz-adv-x="843" d="M31 266l250 92q16 -53 50 -89t93 -36q14 0 31.5 4.5t33 11.5t25.5 20.5t10 31.5q0 31 -33.5 50.5t-84 34.5t-108.5 33.5t-108.5 49.5t-84 78t-33.5 123q0 70 30.5 128t82 99t114.5 63.5t131 22.5q127 0 214 -68.5t144 -177.5l-256 -94q-10 35 -37.5 63.5t-64.5 28.5 q-29 0 -50.5 -13t-21.5 -42q0 -27 34 -43t84 -32.5t108.5 -38t108.5 -55.5t84 -87t34 -131q0 -74 -36 -132.5t-91 -98t-123.5 -61t-136.5 -21.5q-141 0 -244.5 76.5t-148.5 209.5zM309 -299q53 0 93 18.5t40 71.5q0 41 -36.5 58.5t-90.5 13.5q4 12 11.5 35.5t13.5 48.5 q8 29 16 61l123 -8q-20 0 -31.5 -26.5t-15.5 -49.5q37 0 70 -8t58.5 -24.5t40.5 -45t15 -67.5q0 -61 -28.5 -97t-73.5 -54.5t-99.5 -22.5t-105.5 -4v100z" />
<glyph unicode="&#x160;" horiz-adv-x="1124" d="M63 373q23 -86 67 -159t105.5 -125t139.5 -80.5t170 -28.5q100 0 190 34.5t159 98t108.5 150t39.5 190.5q0 121 -44 200.5t-109.5 134t-143 89t-143 64.5t-109.5 61.5t-44 80.5q0 63 44 108.5t109 45.5q59 0 99 -41t57 -96l280 131q-53 147 -167.5 236t-274.5 89 q-96 0 -178 -38.5t-141.5 -104t-93 -151.5t-33.5 -179q0 -119 44 -197.5t109.5 -132t143 -88t143 -65.5t109.5 -64.5t44 -82.5q0 -35 -18 -64t-46 -48t-62.5 -30.5t-65.5 -11.5q-90 0 -141.5 60.5t-71.5 140.5zM215 1993h264l123 -121l125 121h264l-284 -334h-207z" />
<glyph unicode="&#x161;" horiz-adv-x="843" d="M33 266q43 -133 146.5 -209.5t244.5 -76.5q68 0 136.5 21.5t123.5 61t91 98t36 132.5q0 78 -34 131t-84 87t-108.5 55.5t-108.5 38t-84 32.5t-34 43q0 29 22.5 42t49.5 13q39 0 66.5 -28.5t38.5 -63.5l253 94q-55 109 -142 177.5t-216 68.5q-66 0 -130 -22.5 t-115.5 -63.5t-82 -99.5t-30.5 -127.5q0 -76 33.5 -123t84 -78t108.5 -49.5t108.5 -33.5t84 -34.5t33.5 -50.5q0 -37 -34.5 -52.5t-65.5 -15.5q-59 0 -93 36t-50 89zM55 1485h262l125 -121l123 121h264l-284 -334h-205z" />
<glyph unicode="&#x162;" horiz-adv-x="1234" d="M20 1249v287h1194v-287h-442v-1249h-309v1249h-443zM530 -299q53 0 94.5 18.5t41.5 71.5q0 41 -38 58.5t-91 13.5q4 12 11 35.5t13 48.5q8 29 17 61l124 -8q-23 0 -33 -26.5t-14 -49.5q37 0 70 -8t58.5 -24.5t41 -45t15.5 -67.5q0 -61 -29 -97t-74 -54.5t-100 -22.5 t-107 -4v100z" />
<glyph unicode="&#x163;" horiz-adv-x="757" d="M41 690v273h184v348h307v-348h185v-273h-185v-690h-307v690h-184zM268 -299q53 0 93 18.5t40 71.5q0 41 -36.5 58.5t-90.5 13.5q4 12 11.5 35.5t13.5 48.5q8 29 16 61l123 -8q-23 0 -33 -26.5t-14 -49.5q37 0 70 -8t58.5 -24.5t40.5 -45t15 -67.5q0 -61 -28.5 -97 t-73.5 -54.5t-99.5 -22.5t-105.5 -4v100z" />
<glyph unicode="&#x164;" horiz-adv-x="1234" d="M20 1249v287h1194v-287h-442v-1249h-309v1249h-443zM279 1976h249q0 -43 1 -67.5t10.5 -37.5t27 -17.5t51.5 -4.5q33 0 51.5 4.5t27 17.5t9.5 37.5t1 67.5h249q0 -113 -31.5 -176t-80.5 -95t-108.5 -40t-117.5 -8q-57 0 -117.5 8t-109.5 40t-80.5 95.5t-31.5 175.5z" />
<glyph unicode="&#x165;" horiz-adv-x="757" d="M41 690v273h184v348h307v-348h185v-273h-185v-690h-307v690h-184zM664 1028l151 508h334l-285 -508h-200z" />
<glyph unicode="&#x16e;" horiz-adv-x="1474" d="M123 500v1036h313v-1036q0 -37 20.5 -76t59.5 -70.5t94.5 -52t126.5 -20.5q72 0 128.5 20.5t94 52t58 70.5t20.5 76v1036h314v-1036q0 -98 -49.5 -191.5t-132.5 -166t-195.5 -117.5t-237.5 -45q-123 0 -234.5 45t-196.5 117.5t-134 165.5t-49 192zM520 1733 q0 92 62.5 154.5t154.5 62.5q45 0 84 -17.5t69 -46t47 -68.5t17 -85t-17 -84t-47 -69t-69 -46t-84 -16t-85 16t-68.5 46t-46 69t-17.5 84zM676 1733q0 -27 17.5 -45.5t43.5 -18.5q25 0 43.5 19.5t18.5 44.5q0 29 -18.5 47t-43.5 18q-27 0 -44 -18.5t-17 -46.5z" />
<glyph unicode="&#x16f;" horiz-adv-x="1126" d="M102 420v543h308v-531q0 -80 36.5 -137t116.5 -57t117 57t37 137v531h307v-543q0 -104 -33 -185t-93 -138.5t-145 -87t-190 -29.5q-104 0 -189 29.5t-145.5 87t-93.5 138t-33 185.5zM346 1321q0 92 62.5 154.5t154.5 62.5q45 0 84 -17.5t68.5 -46t47 -68.5t17.5 -85 t-17.5 -84t-47 -68.5t-68.5 -46t-84 -16.5t-85 16.5t-68.5 46t-46 68.5t-17.5 84zM502 1321q0 -27 17.5 -45.5t43.5 -18.5q25 0 43.5 19.5t18.5 44.5q0 29 -18.5 47t-43.5 18q-27 0 -44 -18t-17 -47z" />
<glyph unicode="&#x170;" horiz-adv-x="1474" d="M123 500v1036h313v-1036q0 -37 20.5 -76t59.5 -70.5t94.5 -52t126.5 -20.5q72 0 128.5 20.5t94 52t58 70.5t20.5 76v1036h314v-1036q0 -98 -49.5 -191.5t-132.5 -166t-195.5 -117.5t-237.5 -45q-123 0 -234.5 45t-196.5 117.5t-134 165.5t-49 192zM391 1663l152 508h336 l-285 -508h-203zM842 1663l151 508h336l-285 -508h-202z" />
<glyph unicode="&#x171;" horiz-adv-x="1126" d="M102 420v543h308v-531q0 -80 36.5 -137t116.5 -57t117 57t37 137v531h307v-543q0 -104 -33 -185t-93 -138.5t-145 -87t-190 -29.5q-104 0 -189 29.5t-145.5 87t-93.5 138t-33 185.5zM238 1151l151 508h336l-285 -508h-202zM688 1151l152 508h336l-285 -508h-203z" />
<glyph unicode="&#x178;" horiz-adv-x="1255" d="M-41 1536h369l299 -475l301 475h368l-516 -813v-723h-307v723zM166 1860q0 39 15.5 75.5t42 63t62.5 43t79 16.5q41 0 76.5 -15t63 -43t43 -63.5t15.5 -76.5q0 -43 -15.5 -79t-43 -62.5t-63 -42t-76.5 -15.5q-84 0 -141.5 57.5t-57.5 141.5zM692 1860q0 39 15.5 75.5 t42 63t62.5 43t79 16.5q41 0 77 -15t63.5 -43t43 -63.5t15.5 -76.5q0 -43 -15.5 -79t-43 -62.5t-63.5 -42t-77 -15.5q-84 0 -141.5 57.5t-57.5 141.5z" />
<glyph unicode="&#x179;" horiz-adv-x="1351" d="M0 0l745 1247h-677v289h1218l-749 -1251h753v-285h-1290zM522 1667l164 363h307l-252 -363h-219z" />
<glyph unicode="&#x17a;" horiz-adv-x="1032" d="M41 0l434 690h-393v273h909l-432 -687h432v-276h-950zM281 1174l163 362h308l-252 -362h-219z" />
<glyph unicode="&#x17b;" horiz-adv-x="1351" d="M0 0l745 1247h-677v289h1218l-749 -1251h753v-285h-1290zM539 1812q0 57 39.5 97.5t97.5 40.5q57 0 97 -40.5t40 -97.5t-40 -97t-97 -40t-97 40t-40 97z" />
<glyph unicode="&#x17c;" horiz-adv-x="1032" d="M41 0l434 690h-393v273h909l-432 -687h432v-276h-950zM379 1270q0 57 40 97t97 40t97 -40t40 -97t-40 -97t-97 -40t-97 39.5t-40 97.5z" />
<glyph unicode="&#x17d;" horiz-adv-x="1351" d="M0 0h1290v285h-753l749 1251h-1218v-289h677zM289 1993h262l125 -121l123 121h264l-285 -334h-205z" />
<glyph unicode="&#x17e;" horiz-adv-x="1032" d="M41 0h950v276h-432l432 687h-909v-273h393zM129 1485h262l125 -121l123 121h264l-285 -334h-204z" />
<glyph unicode="&#x2000;" horiz-adv-x="1085" />
<glyph unicode="&#x2001;" horiz-adv-x="2171" />
<glyph unicode="&#x2002;" horiz-adv-x="1085" />
<glyph unicode="&#x2003;" horiz-adv-x="2171" />
<glyph unicode="&#x2004;" horiz-adv-x="723" />
<glyph unicode="&#x2005;" horiz-adv-x="542" />
<glyph unicode="&#x2006;" horiz-adv-x="361" />
<glyph unicode="&#x2007;" horiz-adv-x="361" />
<glyph unicode="&#x2008;" horiz-adv-x="271" />
<glyph unicode="&#x2009;" horiz-adv-x="434" />
<glyph unicode="&#x200a;" horiz-adv-x="120" />
<glyph unicode="&#x2010;" horiz-adv-x="999" d="M82 354v267h836v-267h-836z" />
<glyph unicode="&#x2011;" horiz-adv-x="999" d="M82 354v267h836v-267h-836z" />
<glyph unicode="&#x2012;" horiz-adv-x="999" d="M82 354v267h836v-267h-836z" />
<glyph unicode="&#x2013;" horiz-adv-x="1187" d="M82 354v267h1024v-267h-1024z" />
<glyph unicode="&#x2014;" horiz-adv-x="2211" d="M82 354v267h2048v-267h-2048z" />
<glyph unicode="&#x202f;" horiz-adv-x="434" />
<glyph unicode="&#x205f;" horiz-adv-x="542" />
<glyph unicode="&#x25fc;" horiz-adv-x="962" d="M0 0v963h963v-963h-963z" />
</font>
</defs>
</svg>
